<svg width="278" height="188" viewBox="0 0 278 188" fill="none" xmlns="http://www.w3.org/2000/svg">
<path d="M253.086 147.936C253.511 145.742 253.833 143.53 254.088 141.301C254.37 139.062 254.472 136.804 254.393 134.548C254.393 133.417 254.156 132.303 254.02 131.172L253.562 127.795C253.256 125.584 252.917 123.372 252.56 121.16C252.204 118.949 251.78 116.737 251.288 114.559C250.825 112.346 250.137 110.185 249.234 108.11C247.299 104.038 244.828 100.239 241.886 96.8156C244.527 100.426 246.801 104.289 248.674 108.346C249.515 110.399 250.184 112.516 250.677 114.677C251.22 116.838 251.678 119.016 252.085 121.211C252.492 123.406 252.849 125.617 253.205 127.812L253.714 131.189C253.867 132.286 254.071 133.383 254.139 134.481C254.269 136.732 254.218 138.991 253.986 141.234C253.782 143.446 253.511 145.674 253.12 147.869L253.086 147.936Z" fill="#17824D"/>
<path d="M254.173 139.394C255.952 137.548 257.435 135.442 258.569 133.147C259.182 132.018 259.666 130.823 260.011 129.585C260.349 128.341 260.52 127.058 260.52 125.77C260.113 126.985 259.808 128.184 259.383 129.366C258.959 130.547 258.603 131.746 258.11 132.894C257.631 134.061 257.064 135.189 256.413 136.271C255.78 137.361 255.053 138.394 254.241 139.36L254.173 139.394Z" fill="#17824D"/>
<path d="M250.389 112.719C250.834 110.394 251.123 108.042 251.254 105.679C251.373 103.299 251.407 100.885 251.254 98.4534C251.194 96.0028 250.955 93.5598 250.542 91.1433C250.114 88.6874 249.484 86.2706 248.658 83.9175H248.556C248.828 86.3655 249.269 88.7628 249.523 91.177C249.778 93.5912 250.202 95.9717 250.423 98.3859C250.644 100.8 250.711 103.181 250.694 105.578C250.696 107.943 250.543 110.306 250.236 112.652L250.389 112.719Z" fill="#17824D"/>
<path d="M254.241 134.042C253.666 133.059 252.977 132.147 252.188 131.324C251.389 130.506 250.539 129.739 249.642 129.028L247.08 126.782C246.231 126.056 245.383 125.263 244.636 124.453C245.182 125.459 245.88 126.376 246.707 127.171C247.546 127.961 248.442 128.689 249.388 129.349C250.305 130.013 251.183 130.728 252.018 131.493C252.861 132.249 253.607 133.105 254.241 134.042Z" fill="#17824D"/>
<path d="M253.037 127.491C253.781 126.276 254.379 124.979 254.819 123.625C255.24 122.273 255.58 120.898 255.837 119.506C256.125 118.122 256.465 116.754 256.77 115.403C257.076 114.053 257.449 112.719 257.873 111.369C257.115 112.571 256.543 113.88 256.176 115.252C255.818 116.628 255.551 118.027 255.379 119.438C255.196 120.825 254.935 122.2 254.598 123.558C254.254 124.914 253.758 126.227 253.122 127.475L253.037 127.491Z" fill="#17824D"/>
<path d="M260.47 127.491C260.47 127.491 265.018 122.798 265.137 118.543C265.256 114.289 264.271 110.102 265.137 108.549C265.137 108.549 259.418 113.107 258.943 119.286C258.467 125.465 260.47 127.491 260.47 127.491Z" fill="#17824D"/>
<path d="M251.289 100.26C254.811 98.8071 257.781 96.2839 259.774 93.0507C261.511 89.7553 262.403 86.0845 262.371 82.364C260.648 82.9785 259.099 83.9978 257.857 85.3353C256.618 87.1586 250.729 97.4233 251.289 100.26Z" fill="#17824D"/>
<path d="M247.352 127.491C247.055 124.872 246.148 122.357 244.704 120.147C242.532 117.26 238.239 114.069 236.983 111.875C236.585 113.795 236.578 115.775 236.962 117.697C237.347 119.62 238.116 121.446 239.223 123.068C242.956 127.863 247.352 127.491 247.352 127.491Z" fill="#17824D"/>
<path d="M256.414 114.171C259.328 112.559 261.84 110.314 263.762 107.603C266.104 103.754 267.801 97.3895 269.77 94.9077C269.77 94.9077 261.624 96.3259 257.738 102.876C253.851 109.427 256.414 114.171 256.414 114.171Z" fill="#17824D"/>
<path d="M251.577 116.956C249.675 113.342 246.855 110.286 243.397 108.093C237.61 104.413 233.469 101.34 232.74 100.091C232.556 101.906 232.744 103.739 233.293 105.48C233.841 107.221 234.738 108.834 235.93 110.22C239.918 114.508 247.928 117.362 251.577 116.956Z" fill="#17824D"/>
<path d="M230.365 158.674H277.712L273.894 139.934L273.062 135.798H235.015L234.183 139.934L230.365 158.674Z" fill="url(#paint0_linear_1_10673)"/>
<path opacity="0.1" d="M233.775 141.909L273.893 139.934L273.062 135.798H235.014L233.775 141.909Z" fill="black"/>
<path d="M230.059 137.249H278V132.269H230.059V137.249Z" fill="url(#paint1_linear_1_10673)"/>
<path d="M249.472 84.3221V85.0312L249.948 84.8793C252.476 83.9676 262.998 79.5443 259.858 69.6849V69.5836C256.775 70.6189 254.104 72.6071 252.235 75.2583C250.367 77.9095 249.399 81.0851 249.472 84.3221Z" fill="#F27979"/>
<path opacity="0.1" d="M249.472 84.3221V85.0312L249.948 84.8793C252.476 83.9676 262.998 79.5443 259.858 69.6849V69.5836C256.775 70.6189 254.104 72.6071 252.235 75.2583C250.367 77.9095 249.399 81.0851 249.472 84.3221Z" fill="black"/>
<path opacity="0.1" d="M251.782 78.5317C251.175 79.5666 250.659 80.651 250.237 81.7732C249.916 82.6018 249.661 83.4542 249.474 84.3225V84.829C249.722 83.6452 250.063 82.4824 250.492 81.3512C251.464 79.0569 252.78 76.9224 254.395 75.0202C256.016 73.1293 257.811 71.394 259.758 69.8372C259.232 70.867 258.672 71.8969 258.061 72.9098C255.585 77.205 252.692 81.248 249.423 84.9809C250.288 84.0355 251.12 83.0732 251.901 82.0771C253.501 80.0805 254.985 77.9949 256.347 75.8305C257.603 73.8585 258.736 71.8119 259.741 69.7021C259.691 71.0902 259.504 72.4701 259.181 73.8215C258.799 75.0767 258.227 76.2666 257.484 77.3499C256.778 78.4724 255.971 79.5291 255.074 80.507C253.416 82.302 251.472 83.8134 249.321 84.9809L249.796 84.829C250.776 84.2751 251.712 83.6487 252.596 82.955C254.712 81.2843 256.501 79.2414 257.874 76.9279C258.562 75.814 259.055 74.5925 259.334 73.315C259.552 72.1108 259.677 70.8916 259.707 69.6683V69.567V69.6683C258.578 70.5274 257.502 71.4519 256.483 72.4371C254.639 74.2422 253.057 76.2934 251.782 78.5317Z" fill="black"/>
<path d="M241.7 69.2299L241.616 69.365C241.1 70.5982 240.834 71.9207 240.834 73.2564C240.834 74.5922 241.1 75.9147 241.616 77.1479C243.041 81.588 247.776 84.1542 249.167 84.8295L249.405 84.9477H249.49V84.8126C250.156 81.458 249.868 77.9849 248.658 74.7843C247.965 73.4295 246.996 72.233 245.813 71.2709C244.629 70.3089 243.258 69.6023 241.785 69.1962H241.7V69.2299Z" fill="#F27979"/>
<path opacity="0.1" d="M241.7 69.2299L241.616 69.365C241.1 70.5982 240.834 71.9207 240.834 73.2564C240.834 74.5922 241.1 75.9147 241.616 77.1479C243.041 81.588 247.776 84.1542 249.167 84.8295L249.405 84.9477H249.49V84.8126C250.156 81.458 249.868 77.9849 248.658 74.7843C247.965 73.4295 246.996 72.233 245.813 71.2709C244.629 70.3089 243.258 69.6023 241.785 69.1962H241.7V69.2299Z" fill="black"/>
<path opacity="0.1" d="M241.683 69.2633L241.598 69.3984L241.7 69.5166C241.675 69.8932 241.675 70.2711 241.7 70.6477C241.785 71.3399 241.887 72.0152 241.988 72.6905C242.156 73.97 242.446 75.2306 242.854 76.4553C243.276 77.6466 243.846 78.7809 244.551 79.8318C245.819 81.7253 247.35 83.4305 249.099 84.8966L249.337 85.0148C248.437 84.1707 247.538 83.3266 246.706 82.398C245.006 80.6033 243.7 78.476 242.871 76.1514C242.503 74.9545 242.236 73.7291 242.073 72.4879L241.819 70.5802C241.801 70.2709 241.801 69.9609 241.819 69.6516C242.379 70.4113 242.888 71.171 243.38 71.9645C245.806 76.1269 247.845 80.5008 249.472 85.0317V84.8966C249.535 83.7249 249.444 82.5502 249.201 81.402C248.802 79.0398 248.016 76.7586 246.876 74.6489C245.572 72.5551 243.837 70.7599 241.785 69.3815H241.7L241.683 69.2633ZM241.785 69.4321C242.891 70.2371 243.934 71.1231 244.907 72.0827C246.581 73.9079 247.787 76.109 248.42 78.4981C249.081 80.5616 249.419 82.714 249.421 84.8798C249.014 83.7318 248.573 82.6006 248.115 81.5033C246.512 77.2644 244.379 73.243 241.768 69.5335C241.785 69.5027 241.791 69.4668 241.785 69.4321Z" fill="black"/>
<path d="M249.167 85.0148L249.387 85.42C249.412 85.4673 249.44 85.5125 249.472 85.5551H249.608H249.693C251.067 84.4571 252.197 83.0875 253.012 81.5328C253.827 79.9782 254.309 78.2722 254.428 76.5229C254.695 74.7844 254.496 73.0063 253.849 71.3694C253.202 69.7326 252.131 68.2953 250.745 67.2037L250.524 67.0348L250.117 66.7647L249.964 66.6803C243.176 72.4879 247.792 82.4318 249.167 85.0148Z" fill="#F27979"/>
<path opacity="0.1" d="M249.167 85.0148L249.387 85.42C249.412 85.4673 249.44 85.5125 249.472 85.5551H249.608H249.693C251.067 84.4571 252.197 83.0875 253.012 81.5328C253.827 79.9782 254.309 78.2722 254.428 76.5229C254.695 74.7844 254.496 73.0063 253.849 71.3694C253.202 69.7326 252.131 68.2953 250.745 67.2037L250.524 67.0348L250.117 66.7647L249.964 66.6803C243.176 72.4879 247.792 82.4318 249.167 85.0148Z" fill="black"/>
<path opacity="0.1" d="M250.015 66.714C249.592 67.716 249.29 68.7644 249.115 69.8373C248.564 72.8832 248.342 75.9791 248.453 79.0721C248.447 81.0957 248.681 83.1131 249.149 85.0823L249.37 85.4875C249.12 84.6306 248.939 83.7557 248.827 82.8707C248.643 81.4203 248.553 79.9599 248.555 78.4981C248.555 76.9955 248.555 75.493 248.691 73.9904C248.79 72.458 249 70.9346 249.319 69.4321C249.49 68.58 249.734 67.7441 250.049 66.9335C250.184 67.7101 250.303 68.5035 250.388 69.2801C250.724 72.251 250.781 75.2466 250.558 78.228C250.473 79.7305 250.303 81.233 250.116 82.7356C249.998 83.5797 249.879 84.4239 249.709 85.3186L249.455 85.6226L249.658 85.4031C249.658 85.4031 249.658 85.5213 249.658 85.5719H249.743V85.3524C250.63 84.3461 251.352 83.2065 251.881 81.9759C252.871 79.5919 253.284 77.0099 253.086 74.4381C252.889 71.8662 252.087 69.3765 250.744 67.1698L250.524 67.001C251.089 67.9661 251.572 68.977 251.966 70.023C252.984 72.6852 253.289 75.5653 252.849 78.3799C252.435 80.859 251.376 83.1871 249.777 85.133C249.998 84.1538 250.116 83.1577 250.252 82.1616C251.013 77.0366 250.967 71.825 250.116 66.714H250.015Z" fill="black"/>
<path d="M242.786 70.0903C242.767 70.1297 242.757 70.173 242.757 70.2169C242.757 70.2608 242.767 70.3041 242.786 70.3435C242.776 70.3823 242.776 70.423 242.786 70.4617C242.813 70.5077 242.849 70.547 242.894 70.5763C242.938 70.6056 242.988 70.6242 243.041 70.6306C243.208 71.699 243.452 72.7541 243.771 73.7876C244.302 75.581 245.037 77.3084 245.96 78.9368C246.486 79.8653 247.063 80.7264 247.657 81.6043C248.161 82.4682 248.784 83.258 249.507 83.9509C248.76 83.0393 248.098 82.0939 247.436 81.1147C246.316 79.4905 245.372 77.7532 244.619 75.9317C243.995 74.2137 243.496 72.4534 243.126 70.6643C243.178 70.6526 243.227 70.6279 243.268 70.5925C243.308 70.5571 243.339 70.5121 243.358 70.4617C243.377 70.4113 243.382 70.3571 243.374 70.304C243.366 70.2509 243.345 70.2007 243.313 70.1578C243.286 70.1145 243.25 70.0777 243.207 70.05C243.165 70.0224 243.116 70.0046 243.066 69.9981C243.015 69.9916 242.964 69.9966 242.916 70.0126C242.867 70.0285 242.823 70.0551 242.786 70.0903Z" fill="#263238"/>
<path d="M248.658 71.4408C248.658 70.4954 248.896 69.5837 248.98 68.6552C249.059 68.6726 249.14 68.6726 249.218 68.6552C249.272 68.6183 249.315 68.5673 249.342 68.5078C249.369 68.4482 249.379 68.3824 249.371 68.3175C249.371 68.1318 249.201 67.9799 249.031 67.9968C248.976 68.0029 248.923 68.0202 248.874 68.0476C248.826 68.0751 248.784 68.1121 248.75 68.1564C248.717 68.2007 248.693 68.2513 248.68 68.3052C248.667 68.359 248.665 68.4149 248.675 68.4695C248.688 68.5107 248.71 68.5485 248.74 68.5806C248.769 68.6126 248.805 68.638 248.845 68.6552C248.608 69.7036 248.472 70.772 248.437 71.846C248.324 73.8101 248.364 75.78 248.556 77.738C248.721 79.6732 249.039 81.5925 249.506 83.4781C249.354 82.3976 249.133 81.334 248.98 80.2535C248.681 78.3144 248.517 76.357 248.488 74.3953C248.556 73.3485 248.59 72.3862 248.658 71.4408Z" fill="#263238"/>
<path d="M251.256 81.2835C250.914 82.2885 250.459 83.2514 249.898 84.1535C249.898 84.2379 249.898 84.1535 249.898 84.1535C250.566 83.2128 251.087 82.1769 251.442 81.0809C252.878 77.3759 253.603 73.4362 253.581 69.4656C253.633 69.4341 253.677 69.3896 253.707 69.3363C253.737 69.2831 253.753 69.2229 253.753 69.1618C253.753 69.1006 253.737 69.0404 253.707 68.9871C253.677 68.9339 253.633 68.8893 253.581 68.8578C253.525 68.8398 253.466 68.8398 253.411 68.8578C253.325 68.8517 253.239 68.8728 253.166 68.9184C253.092 68.9639 253.036 69.0314 253.004 69.1111C252.977 69.1864 252.973 69.2675 252.991 69.3452C253.009 69.4229 253.048 69.4939 253.105 69.55H253.275C253.275 70.5967 253.275 71.6603 253.139 72.7071C252.937 74.6828 252.562 76.6373 252.019 78.5485C251.917 79.477 251.595 80.3887 251.256 81.2835Z" fill="#263238"/>
<path d="M252.732 81.3514C252.409 81.8241 252.087 82.2799 251.747 82.7358C251.356 83.1953 250.987 83.6743 250.644 84.1708C250.644 84.1708 250.644 84.2721 250.729 84.1708C251.138 83.7615 251.507 83.315 251.832 82.8371C252.206 82.3643 252.562 81.8748 252.901 81.3683C253.563 80.406 254.174 79.4099 254.734 78.397C255.841 76.4635 256.729 74.4137 257.382 72.2854C257.463 72.3183 257.554 72.3183 257.636 72.2854C257.684 72.2524 257.719 72.205 257.738 72.1504C257.761 72.1123 257.775 72.0698 257.779 72.0258C257.784 71.9818 257.779 71.9374 257.764 71.8956C257.749 71.8538 257.726 71.8156 257.695 71.7838C257.664 71.752 257.627 71.7273 257.585 71.7114C257.28 71.5763 256.889 71.9478 257.161 72.2179C257.171 72.2381 257.186 72.2559 257.203 72.2704C257.221 72.2849 257.241 72.2957 257.263 72.3023C256.496 74.3946 255.583 76.4311 254.531 78.397C253.97 79.4099 253.36 80.406 252.732 81.3514Z" fill="#263238"/>
<path d="M245.009 76.4892C242.939 81.1995 248.2 85.9266 249.337 86.8889L249.557 87.0577C250.844 86.3094 251.967 85.3133 252.862 84.1276C253.756 82.9419 254.404 81.5906 254.767 80.1527C255.548 76.9956 252.934 73.5854 251.56 72.049L251.254 71.7114L250.813 71.2725H250.508C249.287 71.732 248.171 72.4305 247.227 73.3265C246.283 74.2226 245.528 75.298 245.009 76.4892Z" fill="#F27979"/>
<path opacity="0.1" d="M250.541 71.289C249.913 72.015 249.268 72.7578 248.691 73.5175C247.033 75.4196 246.192 77.893 246.349 80.4056C246.907 82.7669 247.921 84.9976 249.336 86.973L249.557 87.1418V87.0405L249.641 86.9223C249.879 86.6185 250.117 86.2977 250.337 85.96C250.769 85.3467 251.165 84.7098 251.525 84.0523C252.767 81.8275 253.266 79.2676 252.951 76.7421C252.733 75.1384 252.251 73.5813 251.525 72.1331L251.22 71.7955C251.526 72.3875 251.798 72.9962 252.034 73.6188C253.005 76.0521 253.183 78.7273 252.543 81.2667C252.147 82.5534 251.576 83.7802 250.846 84.9133C250.507 85.4761 250.151 86.0388 249.777 86.6016C249.709 86.6957 249.635 86.7859 249.557 86.8717C249.709 86.1457 249.794 85.386 249.879 84.6601C250.151 82.2121 250.337 79.7641 250.473 77.3161C250.592 75.3577 250.694 73.3825 250.744 71.4241L250.541 71.289ZM250.744 71.289C250.744 72.1669 250.744 72.9773 250.643 73.9227C250.541 76.3369 250.405 78.7511 250.201 81.1654C250.089 83.108 249.856 85.0418 249.506 86.9561C248.929 85.8418 248.233 84.7951 247.656 83.6809C246.982 82.5274 246.566 81.2435 246.434 79.9161C246.39 78.6914 246.628 77.4729 247.13 76.3538C248.061 74.4876 249.28 72.7785 250.744 71.289Z" fill="black"/>
<path d="M249.83 86.0448L249.728 86.3825C249.728 86.5344 249.728 86.6695 249.627 86.7708C249.525 86.8721 249.627 87.024 249.627 87.0577C253.228 86.7076 256.629 85.2434 259.351 82.8709C261.729 80.6109 263.317 77.6526 263.882 74.4296C263.887 74.3509 263.887 74.2719 263.882 74.1932H263.305C260.189 74.3999 257.219 75.5818 254.819 77.5697C252.448 79.9184 250.729 82.8384 249.83 86.0448Z" fill="#F27979"/>
<path opacity="0.1" d="M254.004 80.4734C252.474 82.2239 251.079 84.0863 249.829 86.0447L249.728 86.3823C250.372 85.4369 251.017 84.4745 251.696 83.5291C254.551 79.2593 258.665 75.9743 263.473 74.1255H263.27C262.319 74.4554 261.394 74.856 260.504 75.3242C258.056 76.6567 255.857 78.3985 254.004 80.4734ZM255.039 81.4019C253.987 82.3811 252.952 83.3941 251.934 84.407C251.425 84.9135 250.932 85.42 250.44 85.9434L249.626 86.7706C249.626 86.9225 249.626 87.0238 249.626 87.0576C250.761 86.583 251.856 86.0184 252.901 85.3693C255.654 83.582 258.169 81.4547 260.385 79.0383C261.76 77.652 262.936 76.0842 263.881 74.3787C263.886 74.3001 263.886 74.2211 263.881 74.1424C263.564 74.7557 263.206 75.3479 262.812 75.9151C261.915 77.1556 260.922 78.3241 259.842 79.4097C258.705 80.5578 257.517 81.6889 256.278 82.7863C254.305 84.4699 252.099 85.8629 249.728 86.9225L250.593 86.0278L252.29 84.3395C255.901 80.7508 259.715 77.3689 263.711 74.2099H263.609C262.93 74.7333 262.252 75.2566 261.59 75.7969C259.327 77.5527 257.144 79.421 255.039 81.4019Z" fill="black"/>
<path d="M237.542 70.9683C237.386 74.4087 238.35 77.8076 240.292 80.6589C242.557 83.3031 245.426 85.3696 248.658 86.686L249.32 86.9561H249.473C249.473 86.9561 249.473 86.8211 249.473 86.6016C249.473 86.3821 249.473 86.3484 249.473 86.1795C249.139 83.1756 248.117 80.2879 246.486 77.7382C244.162 74.9754 241.268 72.7416 238.001 71.1877L237.542 70.9683Z" fill="#F27979"/>
<path opacity="0.1" d="M237.543 70.9683L237.662 71.1202C237.859 72.3051 238.125 73.4776 238.459 74.6318C239.34 77.4562 240.902 80.0237 243.007 82.1108C244.119 83.2195 245.31 84.2464 246.571 85.1835C247.25 85.69 247.946 86.1964 248.659 86.686L249.32 86.9561C248.268 86.2302 247.216 85.538 246.198 84.7614C243.72 82.9334 241.627 80.639 240.038 78.0083C238.924 75.896 238.173 73.6137 237.815 71.2553L239.002 72.7072C241.039 75.2733 243.024 77.8902 244.925 80.5407C246.435 82.6342 247.878 84.7783 249.337 86.9055H249.49C248.828 85.8925 248.149 84.8965 247.471 83.9004C245.604 81.1992 243.686 78.5486 241.684 75.9318C240.445 74.2435 239.189 72.6734 237.882 71.0865C238.714 71.6913 239.513 72.3394 240.275 73.0279C242.517 75.008 244.481 77.2794 246.113 79.781C247.487 81.9028 248.625 84.1672 249.507 86.5341C249.507 86.4159 249.507 86.2808 249.507 86.112C249.128 85.0924 248.692 84.0948 248.2 83.1238C245.821 78.3464 242.33 74.2024 238.018 71.0358L237.543 70.9683Z" fill="black"/>
<path d="M240.953 96.3937L241.276 96.6132H241.36C241.36 96.6132 241.36 96.4444 241.479 96.2587C242.056 94.3172 244.093 85.9603 236.677 83.4279C235.91 85.7605 235.911 88.2758 236.68 90.6077C237.449 92.9397 238.946 94.9666 240.953 96.3937Z" fill="#F27979"/>
<path opacity="0.1" d="M240.953 96.3937L241.276 96.6132H241.36C241.36 96.6132 241.36 96.4444 241.479 96.2587C242.056 94.3172 244.093 85.9603 236.677 83.4279C235.91 85.7605 235.911 88.2758 236.68 90.6077C237.449 92.9397 238.946 94.9666 240.953 96.3937Z" fill="black"/>
<path opacity="0.1" d="M238.459 92.3754C238.822 93.2088 239.253 94.0106 239.749 94.7727C240.108 95.3646 240.511 95.929 240.954 96.461L241.277 96.6805C240.659 95.9964 240.091 95.2685 239.58 94.5026C238.608 92.8822 237.892 91.1227 237.458 89.2859C237.033 87.4508 236.783 85.5797 236.712 83.6977C237.102 84.4912 237.475 85.2847 237.849 86.0951C239.355 89.5247 240.52 93.0927 241.327 96.748C241.141 95.8026 240.92 94.874 240.666 93.9455C240.169 92.0793 239.568 90.2419 238.867 88.4417C238.218 86.7889 237.482 85.1715 236.661 83.5964C237.488 84.2536 238.249 84.9885 238.935 85.7912C239.54 86.5744 240.021 87.4456 240.36 88.3742C240.73 89.3078 241.008 90.2746 241.192 91.2612C241.539 93.07 241.591 94.9228 241.344 96.748C241.344 96.748 241.344 96.5792 241.463 96.3935C241.562 95.5475 241.602 94.6957 241.582 93.8442C241.514 91.817 241.071 89.8195 240.275 87.9521C239.904 87.0342 239.383 86.1841 238.731 85.4366C238.082 84.7685 237.39 84.1426 236.661 83.5627C236.68 84.6299 236.759 85.6951 236.898 86.7535C237.162 88.6887 237.687 90.5798 238.459 92.3754Z" fill="black"/>
<path d="M228.242 94.2828V94.3841C228.755 95.2585 229.437 96.0224 230.25 96.6311C231.063 97.2399 231.99 97.6813 232.977 97.9294C235.72 98.5838 238.61 98.1859 241.071 96.8152L241.258 96.7139V96.6295C239.507 94.7177 237.257 93.3268 234.758 92.6114C233.611 92.4331 232.439 92.491 231.316 92.7814C230.192 93.0718 229.14 93.5885 228.225 94.2997L228.242 94.2828Z" fill="#F27979"/>
<path opacity="0.1" d="M228.242 94.2828V94.3841C228.755 95.2585 229.437 96.0224 230.25 96.6311C231.063 97.2399 231.99 97.6813 232.977 97.9294C235.72 98.5838 238.61 98.1859 241.071 96.8152L241.258 96.7139V96.6295C239.507 94.7177 237.257 93.3268 234.758 92.6114C233.611 92.4331 232.439 92.491 231.316 92.7814C230.192 93.0718 229.14 93.5885 228.225 94.2997L228.242 94.2828Z" fill="black"/>
<path opacity="0.1" d="M228.243 94.3171V94.4183H228.362C228.588 94.601 228.833 94.7594 229.092 94.8911L230.467 95.6508C231.322 96.1216 232.219 96.5115 233.148 96.8157C234.049 97.0795 234.977 97.2437 235.914 97.3053C237.624 97.3913 239.338 97.2379 241.005 96.8495L241.192 96.7482C240.258 96.917 239.342 97.0858 238.409 97.1702C236.545 97.3969 234.654 97.2301 232.859 96.6806C231.964 96.3617 231.096 95.9722 230.263 95.5157L228.99 94.8067L228.396 94.4183C229.092 94.4183 229.805 94.4183 230.5 94.5196C234.136 94.9205 237.726 95.6552 241.226 96.7144V96.63C240.539 96.0656 239.78 95.5944 238.969 95.2287C237.334 94.3922 235.575 93.8222 233.759 93.5405C231.888 93.3975 230.008 93.6506 228.243 94.2833V94.3171ZM228.396 94.3171C229.389 94.0053 230.405 93.7682 231.434 93.608C233.303 93.4177 235.19 93.6843 236.932 94.3846C238.493 94.9029 239.959 95.6667 241.277 96.6469C240.394 96.3767 239.58 96.1404 238.612 95.904C235.297 94.9656 231.876 94.4438 228.43 94.3508L228.396 94.3171Z" fill="black"/>
<path d="M241.243 96.8833H241.599H241.786C241.791 96.8442 241.791 96.8043 241.786 96.7651C241.734 95.4403 241.405 94.1407 240.821 92.949C240.236 91.7573 239.409 90.6997 238.392 89.8433C237.452 88.8963 236.277 88.2143 234.986 87.8673C233.695 87.5202 232.334 87.5205 231.043 87.868H230.84L230.5 87.9862H230.382C230.908 94.8574 239.053 96.5457 241.243 96.8833Z" fill="#F27979"/>
<path opacity="0.1" d="M241.243 96.8833H241.599H241.786C241.791 96.8442 241.791 96.8043 241.786 96.7651C241.734 95.4403 241.405 94.1407 240.821 92.949C240.236 91.7573 239.409 90.6997 238.392 89.8433C237.452 88.8963 236.277 88.2143 234.986 87.8673C233.695 87.5202 232.334 87.5205 231.043 87.868H230.84L230.5 87.9862H230.382C230.908 94.8574 239.053 96.5457 241.243 96.8833Z" fill="black"/>
<path opacity="0.1" d="M230.397 88.0876C230.822 88.7914 231.329 89.4431 231.908 90.029C233.514 91.735 235.3 93.2633 237.236 94.5874C238.47 95.5068 239.808 96.2775 241.224 96.8834H241.581C240.944 96.6469 240.326 96.3648 239.731 96.0393C238.761 95.4889 237.826 94.88 236.931 94.216C236.014 93.5407 235.115 92.8484 234.249 92.1225C233.359 91.3629 232.52 90.5451 231.738 89.6745C231.299 89.1845 230.902 88.6594 230.55 88.1045C231.076 88.3746 231.619 88.6615 232.145 88.9654C234.102 90.1062 235.953 91.4169 237.678 92.8822C238.56 93.6251 239.375 94.3848 240.223 95.1782C240.698 95.6341 241.19 96.1068 241.632 96.5964C241.622 96.6919 241.622 96.788 241.632 96.8834C241.632 96.799 241.632 96.7315 241.632 96.6639L241.716 96.7652L241.615 96.6471C241.403 95.6643 241.043 94.7193 240.546 93.8445C239.534 92.171 238.14 90.7579 236.477 89.7196C234.814 88.6813 232.929 88.0471 230.974 87.8681H230.771C231.62 87.9628 232.46 88.1265 233.282 88.3577C235.361 88.9484 237.254 90.0585 238.781 91.5823C240.109 92.9555 241.056 94.6484 241.53 96.4951C241.038 95.9211 240.478 95.3978 239.935 94.8069C237.139 92.0412 233.934 89.7181 230.431 87.9187L230.397 88.0876Z" fill="black"/>
<path d="M229.21 93.9795C229.23 94.043 229.272 94.097 229.329 94.1315H229.414C229.455 94.1397 229.497 94.1361 229.536 94.1211C229.576 94.1062 229.61 94.0805 229.634 94.0471C230.356 94.4389 231.112 94.7665 231.891 95.0262C233.228 95.5218 234.617 95.8618 236.032 96.0392C236.813 96.1292 237.611 96.1799 238.425 96.1911C239.18 96.2926 239.945 96.2926 240.699 96.1911C239.817 96.1911 239.002 96.1911 238.035 96.1911C236.54 96.1303 235.056 95.9153 233.606 95.5496C232.273 95.1633 230.973 94.6722 229.719 94.0808C229.733 94.0428 229.737 94.0021 229.732 93.9622C229.726 93.9223 229.711 93.8842 229.688 93.8512C229.665 93.8182 229.634 93.7911 229.598 93.7723C229.562 93.7536 229.522 93.7436 229.482 93.7432C229.448 93.7409 229.415 93.7452 229.383 93.7558C229.351 93.7665 229.322 93.7833 229.297 93.8052C229.271 93.8272 229.251 93.8539 229.236 93.8838C229.221 93.9137 229.212 93.9462 229.21 93.9795Z" fill="#263238"/>
<path d="M232.723 91.0758C232.18 90.6031 231.688 90.0966 231.162 89.6239C231.177 89.5686 231.177 89.5103 231.162 89.4551C231.164 89.4069 231.153 89.3591 231.129 89.3172C231.105 89.2753 231.069 89.2411 231.026 89.2187C231.006 89.1908 230.979 89.1681 230.948 89.1524C230.917 89.1368 230.883 89.1286 230.848 89.1286C230.813 89.1286 230.779 89.1368 230.748 89.1524C230.717 89.1681 230.69 89.1908 230.67 89.2187C230.67 89.3706 230.67 89.607 230.806 89.6577C230.867 89.675 230.931 89.675 230.992 89.6577C231.503 90.2725 232.071 90.8377 232.689 91.3459C233.833 92.3046 235.053 93.1685 236.338 93.929C237.596 94.6984 238.913 95.3701 240.275 95.938C239.545 95.5497 238.782 95.1952 238.052 94.8069C236.734 94.115 235.464 93.3366 234.251 92.4771C233.843 92.0381 233.266 91.5485 232.723 91.0758Z" fill="#263238"/>
<path d="M239.919 93.9293C240.374 94.5955 240.755 95.3087 241.056 96.0565C240.78 95.2335 240.385 94.4545 239.885 93.7436C238.248 91.2165 236.167 89.0033 233.742 87.21C233.742 87.0243 233.589 86.8217 233.402 86.9061C233.358 86.8907 233.31 86.8907 233.267 86.9061C233.229 86.9578 233.209 87.0198 233.209 87.0834C233.209 87.147 233.229 87.209 233.267 87.2607C233.297 87.3119 233.343 87.3525 233.398 87.3767C233.452 87.4009 233.513 87.4075 233.572 87.3957H233.691C234.336 87.8684 234.964 88.3749 235.558 88.8983C236.675 89.9358 237.703 91.0653 238.629 92.2748C239.155 92.7307 239.512 93.3215 239.919 93.9293Z" fill="#263238"/>
<path d="M240.598 93.0846C240.746 93.4897 240.881 93.8949 241.006 94.3001C241.141 94.7391 241.226 95.1949 241.379 95.6169C241.379 95.6169 241.481 95.6169 241.464 95.6169C241.396 95.193 241.294 94.7752 241.158 94.3676C241.023 93.9287 240.887 93.4898 240.734 93.0508C240.449 92.2185 240.12 91.4014 239.75 90.6028C239.065 89.0621 238.211 87.6014 237.204 86.2471C237.256 86.2108 237.292 86.1566 237.306 86.0952C237.316 86.0506 237.316 86.0046 237.306 85.9601C237.294 85.9304 237.275 85.9038 237.251 85.8822C237.228 85.8605 237.199 85.8443 237.169 85.8346C237.138 85.825 237.105 85.8221 237.074 85.8263C237.042 85.8304 237.011 85.8415 236.984 85.8588C236.763 85.977 236.797 86.3822 237.086 86.3484H237.187C238.121 87.7579 238.954 89.2302 239.682 90.7547C239.987 91.4469 240.31 92.2573 240.598 93.0846Z" fill="#263238"/>
<path d="M234.165 95.5492C236.1 98.9257 241.36 97.879 242.464 97.6089C242.531 97.6191 242.6 97.6191 242.667 97.6089C242.788 96.4927 242.683 95.3639 242.36 94.2884C242.036 93.2129 241.5 92.2124 240.783 91.3454C239.205 89.4546 235.947 89.4883 234.403 89.6572H234.046H233.588C233.593 89.7302 233.593 89.8036 233.588 89.8766C233.3 90.8128 233.203 91.7967 233.302 92.7708C233.401 93.7448 233.694 94.6893 234.165 95.5492Z" fill="#F27979"/>
<path opacity="0.1" d="M233.487 89.8602C233.64 90.5862 233.809 91.2953 234.013 91.9875C234.426 93.8453 235.553 95.469 237.152 96.512C238.835 97.2163 240.639 97.589 242.464 97.6094C242.532 97.6195 242.6 97.6195 242.668 97.6094C242.668 97.6094 242.668 97.6094 242.668 97.5081C242.668 97.4068 242.498 96.9341 242.396 96.6471C242.294 96.3601 242.006 95.5834 241.768 95.077C240.974 93.3168 239.629 91.8598 237.933 90.9238C236.878 90.3333 235.731 89.9224 234.539 89.7083H234.183C234.68 89.7874 235.173 89.8945 235.659 90.0291C237.584 90.5385 239.3 91.637 240.563 93.1693C241.182 93.98 241.684 94.8719 242.057 95.8198C242.243 96.2756 242.396 96.7315 242.549 97.1873C242.549 97.1873 242.549 97.3562 242.634 97.4406C242.248 97.0255 241.84 96.631 241.412 96.2588C240.054 94.9926 238.629 93.777 237.203 92.5952C236.049 91.6329 234.895 90.6875 233.809 89.7758C233.705 89.8152 233.597 89.8435 233.487 89.8602ZM233.487 89.7421L235.048 90.9914C236.491 92.1394 237.899 93.3212 239.274 94.5198C240.413 95.4566 241.49 96.4661 242.498 97.5419C241.548 97.3899 240.597 97.3392 239.664 97.2042C238.649 97.0837 237.671 96.7499 236.796 96.225C236.02 95.7127 235.384 95.0165 234.946 94.1991C234.255 92.7948 233.791 91.2906 233.572 89.7421H233.487Z" fill="black"/>
<path d="M242.176 96.9504L242.345 97.153L242.532 97.3894C242.571 97.4502 242.617 97.5067 242.668 97.5582C244.077 95.229 244.718 92.5191 244.501 89.8091C244.188 87.3387 243.081 85.0351 241.344 83.2417L241.208 83.1067V83.208L241.124 83.3261C239.846 85.2978 239.223 87.6184 239.342 89.961C239.658 92.4966 240.635 94.9059 242.176 96.9504Z" fill="#F27979"/>
<path opacity="0.1" d="M240.648 91.9026C241.03 93.6263 241.541 95.3193 242.176 96.9673L242.345 97.1699C242.04 96.3427 241.752 95.4816 241.48 94.705C240.149 91.0554 239.995 87.0839 241.039 83.343L240.954 83.4612C240.719 84.1888 240.543 84.934 240.428 85.6897C240.147 87.7581 240.221 89.859 240.648 91.9026ZM241.684 91.6999C241.802 92.7804 241.955 93.8609 242.125 94.9414L242.379 96.5284L242.532 97.3894C242.571 97.4502 242.617 97.5067 242.668 97.5582C242.891 96.6602 243.038 95.7454 243.109 94.8232C243.268 92.3532 243.103 89.873 242.617 87.4455C242.39 85.9925 241.962 84.5777 241.344 83.2417L241.208 83.1067C241.439 83.577 241.637 84.0621 241.802 84.5586C242.162 85.6602 242.429 86.7896 242.6 87.9351C242.81 89.1418 242.952 90.3593 243.024 91.5818C243.164 93.5335 243.021 95.495 242.6 97.4063C242.6 97.0855 242.498 96.7816 242.447 96.4777C242.345 95.87 242.244 95.2622 242.159 94.6544C241.594 90.8561 241.248 87.0288 241.124 83.1911C241.124 83.8326 241.124 84.4742 241.124 85.1157C241.242 87.3611 241.429 89.5389 241.684 91.6999Z" fill="black"/>
<path d="M227.428 97.5756C229.457 99.2269 231.971 100.175 234.59 100.277C237.226 100.1 239.781 99.2953 242.04 97.9301C242.186 97.8298 242.339 97.7395 242.498 97.66H242.6L242.362 97.5249L242.091 97.373C240.094 96.1992 237.853 95.5001 235.54 95.3302C232.811 95.4786 230.147 96.216 227.734 97.4912L227.428 97.5756Z" fill="#F27979"/>
<path opacity="0.1" d="M227.428 97.5752H227.581C228.397 97.9918 229.236 98.3637 230.093 98.6895C232.217 99.421 234.488 99.6295 236.711 99.2973C237.89 99.1308 239.053 98.8711 240.19 98.5207C240.818 98.3518 241.429 98.1493 242.057 97.9467C242.203 97.8463 242.356 97.7561 242.515 97.6765C241.598 97.9804 240.699 98.3012 239.766 98.5544C237.544 99.2408 235.209 99.4874 232.893 99.2804C231.114 98.9985 229.394 98.4282 227.802 97.5921H229.227C231.705 97.5077 234.199 97.4908 236.677 97.5921C238.646 97.5921 240.597 97.7103 242.549 97.7947H242.651L239.918 97.6596C237.424 97.6596 234.946 97.5415 232.451 97.6596C230.89 97.6596 229.329 97.6596 227.768 97.7778C228.514 97.543 229.273 97.3513 230.042 97.2038C232.273 96.7427 234.555 96.578 236.83 96.7142C238.75 96.8415 240.65 97.1755 242.498 97.7103L242.226 97.5583C241.434 97.3234 240.63 97.1318 239.817 96.9843C235.858 96.2782 231.787 96.5154 227.937 97.6765L227.428 97.5752Z" fill="black"/>
<path d="M0 157.656L33.8184 157.505L67.6368 157.448L135.28 157.347L202.917 157.448L236.741 157.505L270.56 157.656L236.741 157.814L202.917 157.871L135.28 157.972L67.6368 157.871L33.8184 157.814L0 157.656Z" fill="#444444"/>
<path d="M63.4623 108.668C66.9991 111.605 70.8437 114.154 74.9296 116.271C69.2784 106.012 72.3038 84.1421 72.8176 87.3412C75.2594 102.63 84.4561 119.918 88.4582 121.067C88.4814 121.063 88.5049 121.063 88.528 121.067C99.3547 123.231 109.534 121.471 118.217 118.095C118.222 118.078 118.222 118.061 118.217 118.044C110.784 106.346 113.194 84.0601 113.638 85.4672C118.471 100.566 130.503 110.138 132.742 110.302C141.621 104.081 146.607 97.5504 145.497 96.7553C137.435 90.944 131.391 77.1951 126.12 62.771C120.907 48.5425 118.953 27.8213 110.974 14.8484C103.668 2.96716 87.2088 -0.547372 77.2447 4.38054C51.1071 17.2777 58.5342 104.592 63.4623 108.668Z" fill="#444444"/>
<path d="M79.0164 3.61084C76.8439 4.36269 74.8509 5.55274 73.1622 7.10645C71.51 8.58015 70.0002 10.2047 68.6527 11.9586C66.1148 15.4495 63.9867 19.2178 62.3102 23.19C58.8535 31.0204 56.9698 46.7822 56.0057 55.1237C55.1908 63.4961 55.1908 71.9272 56.0057 80.2996C56.1706 82.3944 56.4814 84.4766 56.7161 86.5652L57.6421 92.8118L58.8472 99.0206L60.2488 105.192L59.2658 98.9701L58.4349 92.7298L57.7309 86.4894C57.5723 84.4009 57.3376 82.325 57.2425 80.2365C56.6225 71.922 56.7393 63.5693 57.5913 55.2751C58.4032 46.9967 60.3123 31.3738 63.4328 23.5623C64.9633 19.6083 66.9332 15.8369 69.306 12.3183C70.5393 10.536 71.9387 8.87344 73.4857 7.35253C74.2781 6.58697 75.1261 5.88047 76.0227 5.23876C76.9367 4.55572 77.945 4.00744 79.0164 3.61084Z" fill="#444444"/>
<path d="M146.697 94.5721C144.381 91.5733 142.223 88.4563 140.234 85.2336C138.211 82.0788 136.321 78.8229 134.614 75.5166C132.908 72.2103 131.31 68.8661 129.959 65.421C128.608 61.9759 127.378 58.5118 126.077 55.0541C123.401 48.1575 120.845 33.8218 117.712 27.0514C116.126 23.6694 114.47 20.3126 112.561 17.0568C111.594 15.4194 110.536 13.8373 109.39 12.3181C108.264 10.7093 106.818 9.34769 105.141 8.31775C106.698 9.45371 108.021 10.8785 109.035 12.5137C110.07 14.0711 111.016 15.6847 111.87 17.347C113.621 20.6407 115.136 24.0227 116.576 27.4426C119.462 34.2571 122.018 48.5677 124.58 55.4895C125.925 58.9409 127.187 62.3923 128.608 65.8438C130.032 69.3083 131.674 72.6801 133.523 75.9394C137.223 82.6068 141.64 88.8544 146.697 94.5721Z" fill="#444444"/>
<path d="M83.8553 89.1012C90.6799 104.352 117.382 153.461 133.86 156.414C144.642 158.344 187.866 152.628 194.964 142.147C198.059 137.585 191.437 106.813 185.704 108.22C179.97 109.627 145.372 115.47 141.059 114.391C136.746 113.312 103.428 77.7941 91.1492 69.1372C69.9525 54.1894 80.183 80.8922 83.8553 89.1012Z" fill="#D59072"/>
<path d="M172.504 106.46L175.105 153C175.105 153 140.976 160.465 126.077 155.348C107.995 149.133 81.5272 93.4049 77.8739 84.2431C71.9246 69.207 73.5737 60.1083 82.0029 62.3293C85.2756 63.1685 89.6139 65.7366 94.8655 70.3617C100.39 75.1823 132.122 106.46 142.136 112.366C147.762 115.672 172.504 106.46 172.504 106.46Z" fill="url(#paint2_linear_1_10673)"/>
<path d="M154.207 145.069C153.289 145.396 152.422 145.85 151.632 146.419C152.602 146.343 153.556 146.13 154.467 145.788C155.385 145.465 156.253 145.013 157.042 144.444C156.071 144.515 155.116 144.725 154.207 145.069ZM128.494 108.51C127.577 108.832 126.712 109.285 125.925 109.854C127.871 109.673 129.735 108.985 131.329 107.86C130.357 107.939 129.403 108.158 128.494 108.51ZM102.553 86.4259C101.635 86.753 100.768 87.2076 99.978 87.7762C101.926 87.5935 103.791 86.906 105.388 85.7823C104.418 85.8598 103.463 86.0744 102.553 86.4196V86.4259ZM121.409 136.462C120.491 136.786 119.624 137.238 118.834 137.806C120.78 137.625 122.644 136.937 124.238 135.812C123.269 135.889 122.316 136.106 121.409 136.456V136.462ZM151.587 118.524C150.669 118.849 149.801 119.304 149.012 119.874C149.982 119.798 150.937 119.585 151.847 119.243C152.766 118.92 153.633 118.468 154.422 117.899C153.452 117.967 152.497 118.176 151.587 118.517V118.524ZM106.27 110.384C105.365 110.714 104.511 111.168 103.733 111.734C104.703 111.658 105.657 111.446 106.568 111.103C107.474 110.776 108.328 110.321 109.105 109.753C108.135 109.827 107.18 110.038 106.27 110.378V110.384ZM174.135 136.084C174.027 135.655 173.887 135.232 173.742 134.822C173.413 133.908 172.956 133.046 172.384 132.26C172.458 133.226 172.672 134.176 173.019 135.08C173.311 135.895 173.703 136.67 174.186 137.39L174.135 136.084ZM138.281 138.677C137.954 137.764 137.499 136.901 136.93 136.115C137.006 137.08 137.22 138.03 137.564 138.936C137.89 139.85 138.347 140.713 138.921 141.497C138.855 140.53 138.648 139.578 138.306 138.671L138.281 138.677ZM115.619 98.8182C115.29 97.9069 114.833 97.0466 114.261 96.2628C114.338 97.228 114.552 98.1775 114.896 99.0832C115.222 99.9958 115.679 100.857 116.253 101.639C116.179 100.673 115.966 99.723 115.619 98.8182ZM90.6354 74.349C90.3103 73.4354 89.8553 72.5727 89.2845 71.7873C89.4668 73.7231 90.1581 75.5772 91.2887 77.1632C91.1995 76.1969 90.9688 75.2488 90.6037 74.349H90.6354ZM125.989 150.413C125.117 149.988 124.187 149.69 123.23 149.53C123.972 150.156 124.801 150.672 125.691 151.063C126.571 151.479 127.506 151.768 128.469 151.921C127.718 151.304 126.883 150.796 125.989 150.413ZM157.112 131.263C156.231 130.848 155.296 130.561 154.333 130.411C155.845 131.645 157.652 132.469 159.579 132.803C158.834 132.169 158.003 131.642 157.112 131.238V131.263ZM146.862 156.824C145.983 156.405 145.047 156.116 144.084 155.966C144.554 156.375 145.069 156.731 145.619 157.026L147.116 156.944L146.862 156.824ZM121.695 120.511C120.816 120.093 119.88 119.803 118.917 119.653C120.425 120.888 122.231 121.712 124.156 122.044C123.415 121.41 122.586 120.885 121.695 120.486V120.511ZM83.6396 87.6563C82.7604 87.2377 81.8245 86.9486 80.8616 86.7982C81.6038 87.424 82.4326 87.9403 83.3225 88.3314C84.2029 88.7472 85.1383 89.0362 86.1005 89.1896C85.363 88.557 84.5387 88.0322 83.6523 87.631L83.6396 87.6563ZM107.234 128.19C106.813 129.064 106.525 129.996 106.378 130.954C107.006 130.212 107.525 129.386 107.919 128.499C108.334 127.622 108.624 126.692 108.781 125.736C108.158 126.47 107.641 127.288 107.247 128.165L107.234 128.19ZM94.5488 102.169C94.1283 103.043 93.8398 103.974 93.6925 104.932C94.3206 104.191 94.8396 103.365 95.2338 102.478C95.6489 101.601 95.9392 100.671 96.0964 99.7142C95.4772 100.45 94.9629 101.268 94.5678 102.143L94.5488 102.169ZM134.919 123.067C134.51 123.935 134.226 124.857 134.075 125.805C134.709 125.069 135.23 124.244 135.623 123.357C136.038 122.48 136.328 121.55 136.486 120.593C135.854 121.331 135.332 122.155 134.938 123.041L134.919 123.067ZM74.8489 74.2417C74.9123 74.5888 74.9821 74.9358 75.0645 75.2955C75.3682 74.5887 75.5813 73.8468 75.6988 73.0871C75.3878 73.4376 75.1097 73.8156 74.8679 74.2165L74.8489 74.2417Z" fill="white"/>
<path d="M166.567 152.306C165.971 145.441 164.582 117.255 164.696 111.141C164.696 110.718 164.975 110.624 165.026 111.066C167.296 131.597 166.599 145.51 166.833 152.275C166.84 152.426 166.58 152.464 166.567 152.306Z" fill="#444444"/>
<path opacity="0.1" d="M77.898 84.2368C81.5132 93.3985 107.993 149.133 126.101 155.341C130.541 156.875 136.757 157.278 143.226 157.108L80.9107 62.0769C79.1158 61.8056 77.676 62.1085 76.6295 62.9414C73.268 65.5852 73.5914 73.3714 77.898 84.2368Z" fill="#444444"/>
<path d="M15.8306 157.6L109.535 157.354L104.353 125.3C104.353 125.3 111.761 116.353 110.36 106.649C108.825 96.0168 89.5498 69.0615 87.9325 67.5282C81.406 61.433 74.499 60.3414 67.8647 62.5372C37.2112 81.7441 15.8306 157.6 15.8306 157.6Z" fill="url(#paint3_linear_1_10673)"/>
<path d="M23.1507 139.144C22.6083 139.348 22.0806 139.588 21.5714 139.864L21.3811 140.4C22.0725 140.274 22.7516 140.088 23.4107 139.845C24.3305 139.522 25.198 139.067 25.9858 138.495C25.0142 138.574 24.0592 138.793 23.1507 139.144ZM57.0071 77.9398C56.1021 78.2697 55.2481 78.7242 54.4701 79.2901C55.4382 79.2138 56.3907 79.0014 57.2989 78.6591C58.2186 78.336 59.0861 77.8811 59.8739 77.3089C58.8936 77.3781 57.9282 77.5863 57.0071 77.9272V77.9398ZM101.221 87.0006C100.776 87.2203 100.352 87.4778 99.9524 87.7704C100.478 87.7387 100.998 87.6541 101.506 87.518C101.43 87.3477 101.322 87.1773 101.221 87.0006ZM77.0812 100.951C76.1634 101.276 75.2964 101.729 74.5061 102.295C76.4537 102.113 78.3192 101.425 79.9163 100.302C78.9447 100.381 77.9898 100.6 77.0812 100.951ZM65.0304 137.453C64.112 137.777 63.2448 138.229 62.4553 138.797C63.4256 138.721 64.3801 138.509 65.2904 138.166C66.1965 137.839 67.0509 137.384 67.8275 136.816C66.8756 136.896 65.9401 137.11 65.0494 137.453H65.0304ZM106.257 110.378C105.352 110.708 104.498 111.163 103.72 111.729C104.69 111.652 105.645 111.44 106.555 111.098C107.461 110.77 108.315 110.315 109.092 109.747C108.126 109.825 107.176 110.037 106.27 110.378H106.257ZM44.7724 112.006C43.8676 112.334 43.0136 112.786 42.2353 113.35C44.1813 113.169 46.045 112.481 47.6392 111.356C46.6611 111.434 45.6996 111.653 44.785 112.006H44.7724ZM90.9904 136.456C90.072 136.78 89.2048 137.233 88.4153 137.8C89.3856 137.724 90.3401 137.512 91.2504 137.169C92.1671 136.844 93.0321 136.389 93.8192 135.819C92.8544 135.895 91.9058 136.11 91.0031 136.456H90.9904ZM66.1467 64.3297L65.9564 63.8628C65.7471 64.0079 65.5441 64.1593 65.3222 64.3108C65.3602 64.4054 65.3919 64.4938 65.4236 64.5884C65.7522 65.494 66.2093 66.3481 66.7809 67.1249C66.7019 66.1683 66.4884 65.2274 66.1467 64.3297ZM42.7554 138.368C42.4289 137.455 41.9741 136.593 41.4045 135.807C41.5881 137.744 42.2791 139.6 43.4087 141.189C43.3297 140.222 43.1096 139.272 42.7554 138.368ZM76.447 123.774C76.1177 122.874 75.6629 122.024 75.096 121.25C75.2784 123.186 75.9696 125.04 77.1002 126.626C77.0235 125.649 76.8034 124.688 76.447 123.774ZM64.5293 92.3135C64.2005 91.4022 63.7435 90.5418 63.172 89.758C63.365 91.6914 64.0553 93.5429 65.1763 95.1339C65.0956 94.1681 64.8778 93.2185 64.5293 92.3135ZM105.933 145.826C105.611 144.912 105.156 144.049 104.582 143.265C104.659 144.23 104.873 145.18 105.217 146.085C105.544 146.997 106.001 147.858 106.574 148.641C106.499 147.677 106.283 146.729 105.933 145.826ZM90.6035 74.3496C90.2783 73.4359 89.8234 72.5733 89.2525 71.7878C89.4349 73.7237 90.1261 75.5778 91.2568 77.1637C91.1777 76.1991 90.9577 75.251 90.6035 74.3496ZM54.6731 126.254C53.7929 125.839 52.8573 125.552 51.895 125.402C53.4068 126.636 55.2138 127.46 57.1403 127.793C56.3936 127.169 55.5633 126.65 54.6731 126.254ZM87.9523 156.673C88.2757 156.953 88.6214 157.206 88.9861 157.43H90.4957C89.6876 157.061 88.8315 156.806 87.9523 156.673ZM32.9753 151.272C32.0949 150.856 31.1595 150.567 30.1972 150.414C30.9397 151.044 31.7709 151.563 32.6645 151.953C33.5434 152.367 34.4764 152.656 35.4362 152.811C34.6959 152.181 33.8668 151.663 32.9753 151.272ZM89.7346 118.53C88.8568 118.114 87.9233 117.825 86.9629 117.672C87.7031 118.302 88.5322 118.821 89.4238 119.212C90.3044 119.626 91.2398 119.912 92.2018 120.064C91.4566 119.439 90.6259 118.923 89.7346 118.53ZM83.6521 87.6127C82.7728 87.1941 81.837 86.905 80.8741 86.7545C81.6162 87.3803 82.445 87.8967 83.335 88.2878C84.2153 88.7036 85.1507 88.9926 86.113 89.1459C85.3688 88.5279 84.5402 88.0181 83.6521 87.6316V87.6127ZM47.1572 96.1687C46.7364 97.0434 46.4458 97.9744 46.2946 98.9324C46.9241 98.1921 47.4432 97.3654 47.8358 96.4779C48.2574 95.6057 48.5481 94.6767 48.6984 93.7205C48.0678 94.4647 47.5487 95.2957 47.1572 96.1876V96.1687ZM76.5611 146.893C76.1453 147.769 75.857 148.699 75.7049 149.656C76.3299 148.934 76.8488 148.126 77.2461 147.259C77.6641 146.383 77.9545 145.452 78.1087 144.495C77.4835 145.226 76.9627 146.039 76.5611 146.912V146.893ZM94.5676 102.125C94.1471 102.999 93.8586 103.931 93.7113 104.889C94.3394 104.147 94.8584 103.321 95.2526 102.434C95.6677 101.557 95.958 100.627 96.1152 99.6706C95.4859 100.419 94.9649 101.252 94.5676 102.144V102.125ZM54.3242 149.499C53.9022 150.388 53.6117 151.334 53.4616 152.307C54.095 151.57 54.6164 150.745 55.0092 149.858C55.4251 148.982 55.7134 148.052 55.8654 147.095C55.2396 147.826 54.7207 148.642 54.3242 149.518V149.499ZM33.9774 126.317C33.5586 127.192 33.2681 128.123 33.1148 129.08C34.3616 127.58 35.1906 125.781 35.5186 123.862C34.8905 124.604 34.3716 125.43 33.9774 126.317ZM62.6329 111.293C62.2113 112.165 61.9207 113.094 61.7703 114.051C62.3994 113.312 62.9185 112.488 63.3116 111.602C63.7296 110.727 64.02 109.796 64.1742 108.839C63.5461 109.58 63.0271 110.406 62.6329 111.293ZM74.17 75.4979C73.7484 76.3701 73.4577 77.2992 73.3074 78.2553C73.9365 77.517 74.4555 76.6925 74.8486 75.8071C75.2666 74.9313 75.5571 74.0008 75.7112 73.0435C75.0816 73.7906 74.5626 74.6235 74.17 75.5169V75.4979Z" fill="white"/>
<path d="M98.0993 80.5138C99.9132 83.5172 101.905 86.4134 103.808 89.3474C103.04 87.2526 102.292 85.1577 101.454 83.0945C101.452 83.0864 101.452 83.0776 101.455 83.0697C101.458 83.0618 101.464 83.0551 101.471 83.0507C101.479 83.0464 101.487 83.0446 101.496 83.0456C101.504 83.0467 101.512 83.0506 101.518 83.0566C102.85 85.5456 103.935 88.1575 104.759 90.8554C106.181 93.0821 107.453 95.4008 108.564 97.7962C109.929 100.671 110.787 103.757 111.101 106.92C111.306 110.107 110.852 113.302 109.77 116.309C108.494 119.76 106.906 123.088 105.025 126.253C104.784 126.676 104.194 126.285 104.391 125.862C107.049 120.221 109.985 114.29 109.719 107.898C109.452 101.506 106.497 95.7518 103.598 90.2686C101.905 86.9264 99.9984 83.6955 97.89 80.5958C97.8012 80.5075 98.0168 80.375 98.0993 80.5138Z" fill="#444444"/>
<path d="M127.707 150.729L125.804 161.323H184.866C186.497 161.271 188.062 160.673 189.307 159.625C190.553 158.577 191.406 157.141 191.729 155.55L192.579 150.729H127.707Z" fill="#DBDBDB"/>
<path d="M121.053 155.55L121.91 150.729H133.51L132.654 155.55C132.335 157.136 131.488 158.568 130.25 159.616C129.011 160.664 127.454 161.265 125.829 161.323C125.108 161.342 124.392 161.2 123.734 160.907C123.075 160.615 122.491 160.179 122.024 159.632C121.572 159.064 121.251 158.403 121.083 157.698C120.916 156.993 120.905 156.259 121.053 155.55Z" fill="#EBEBEB"/>
<path d="M146.899 75.1758L131.633 161.323H184.91C186.533 161.261 188.088 160.658 189.324 159.611C190.561 158.564 191.408 157.133 191.728 155.549L206.995 69.4024H153.718C152.096 69.4329 150.537 70.0318 149.316 71.0934C148.063 72.1374 147.209 73.5792 146.899 75.1758Z" fill="#DBDBDB"/>
<path d="M153.724 69.4024L150.642 86.8047H215.501L217.562 75.1758C218.126 71.9894 215.983 69.4024 212.786 69.4024H153.724Z" fill="#EBEBEB"/>
<path d="M146.9 75.1758L144.839 86.8047H156.439L158.5 75.1758C159.065 71.9894 156.927 69.4024 153.724 69.4024C152.103 69.4329 150.544 70.0318 149.323 71.0934C148.067 72.1364 147.211 73.5783 146.9 75.1758Z" fill="#DBDBDB"/>
<path d="M199.149 102.718C201.318 108.87 207.572 116.877 207.642 121.723C207.699 122.916 207.37 124.095 206.701 125.087C206.033 126.079 205.062 126.831 203.932 127.232C203.932 127.232 208.473 130.115 207.807 134.519C207.464 136.785 203.519 138.23 203.519 138.23C203.519 138.23 207.058 140.697 206.221 144.577C205.555 147.669 201.705 148.653 201.705 148.653C201.705 148.653 203.989 152.597 202.295 155.531C198.857 161.475 171.73 158.61 168.604 148.224C167.145 143.385 173.735 144.438 173.735 144.438C173.735 144.438 164.627 140.652 165.084 135.062C165.54 129.472 174.007 131.371 174.007 131.371C174.007 131.371 165.217 127.617 166.27 121.875C167.373 115.906 175.523 119.237 175.523 119.237C175.523 119.237 169.923 114.536 171.718 110.328C174.718 103.387 185.177 113.621 191.291 112.852L195.623 103.387L199.149 102.718Z" fill="#D59072"/>
<path d="M203.678 111.797C202.137 105.797 210.084 99.4303 209.437 93.4992C208.568 85.4542 198.845 92.2372 195.649 103.437L194.704 112.555L203.678 111.797Z" fill="#D59072"/>
<path d="M201.122 148.899C201.141 148.899 201.158 148.907 201.171 148.92C201.185 148.933 201.192 148.95 201.192 148.969C201.192 148.987 201.185 149.005 201.171 149.018C201.158 149.031 201.141 149.038 201.122 149.038C191.963 150.262 181.536 148.811 173.355 144.426C173.082 144.287 173.202 143.795 173.532 143.889C182.849 146.804 191.329 148.647 201.122 148.899Z" fill="#444444"/>
<path d="M203.645 138.298C203.753 138.298 203.747 138.475 203.645 138.488C194.201 139.699 182.499 137.743 173.664 131.585C173.366 131.376 173.303 130.884 173.664 131.099C179.848 134.752 194.829 138.115 203.645 138.298Z" fill="#444444"/>
<path d="M175.022 118.593C183.717 124.171 193.339 126.411 203.563 127.295C203.696 127.295 203.664 127.497 203.563 127.515C198.451 128.437 192 127.194 187.072 125.806C182.464 124.607 178.254 122.224 174.863 118.896C174.685 118.764 174.831 118.48 175.022 118.593Z" fill="#444444"/>
<path d="M72.5653 62.1076C72.6922 63.7482 78.6922 75.1751 86.0115 75.9512C88.3963 76.1973 90.3371 63.3317 90.3371 63.3317L90.705 62.4168L95.779 49.5512L81.6035 37.0958L79.5358 35.4237C79.5358 35.4237 78.3878 39.0329 76.9988 43.538C76.9354 43.7463 76.8656 43.9608 76.8022 44.169C76.7387 44.3772 76.6309 44.6612 76.5611 44.901C76.3455 45.5698 76.1299 46.2576 75.9269 46.9453C75.7683 47.469 75.6161 47.9738 75.4702 48.5291C75.3244 49.0843 75.1721 49.627 75.0136 50.1759C73.5484 55.6591 72.521 61.4451 72.5653 62.1076Z" fill="#D59072"/>
<path d="M76.979 43.52C77.7524 47.4692 79.3808 51.2036 81.7509 54.4637C84.1211 57.7239 87.1763 60.4316 90.7042 62.3988L95.7783 49.5332L81.6027 37.0778L79.535 35.4057C79.535 35.4057 78.368 39.0149 76.979 43.52Z" fill="#444444"/>
<path d="M118.332 34.2126C115.123 58.2401 100.294 59.0415 95.0867 58.3474C90.3615 57.7164 74.3403 54.9717 75.038 30.7422C75.7356 6.51279 87.9831 0.398644 98.8732 1.26939C109.763 2.14014 121.548 10.1788 118.332 34.2126Z" fill="#D59072"/>
<path d="M114.864 31.6322C114.337 31.4367 113.82 31.2134 113.317 30.9633C112.741 30.8063 112.234 30.462 111.877 29.9853C111.792 29.8146 111.768 29.6205 111.807 29.4341C111.846 29.2476 111.946 29.0796 112.093 28.9568C112.416 28.7537 112.789 28.6402 113.171 28.628C113.553 28.6158 113.932 28.7054 114.268 28.8874C115.006 29.1532 115.618 29.6815 115.987 30.3702C116.062 30.5325 116.088 30.7128 116.061 30.8894C116.035 31.066 115.958 31.2312 115.839 31.3649C115.72 31.4986 115.565 31.595 115.392 31.6424C115.219 31.6899 115.035 31.6863 114.864 31.6322Z" fill="#444444"/>
<path d="M98.531 27.5056C99.0908 27.534 99.6518 27.534 100.212 27.5056C100.807 27.5828 101.411 27.463 101.931 27.1649C102.074 27.04 102.172 26.8717 102.21 26.6858C102.248 26.5 102.223 26.3069 102.14 26.1364C101.922 25.8226 101.623 25.5724 101.275 25.4115C100.927 25.2507 100.543 25.1851 100.161 25.2215C99.3786 25.1791 98.6082 25.4263 97.9982 25.9155C97.8683 26.0359 97.7759 26.1909 97.732 26.3621C97.6882 26.5333 97.6947 26.7133 97.7509 26.8809C97.807 27.0485 97.9104 27.1964 98.0487 27.3072C98.187 27.418 98.3544 27.4868 98.531 27.5056Z" fill="#444444"/>
<path d="M101.107 32.7931C101.107 32.7237 100.967 32.8435 100.955 32.9129C100.714 34.5472 100.162 36.377 98.5826 36.6483C98.5382 36.6483 98.5256 36.743 98.5826 36.743C100.428 36.8376 101.139 34.3768 101.107 32.7931Z" fill="#444444"/>
<path d="M99.9584 30.831C97.3707 30.1622 96.21 35.3677 98.6138 35.9861C101.018 36.6044 102.128 31.3926 99.9584 30.831Z" fill="#444444"/>
<path d="M98.8667 30.8815C98.3466 31.0771 97.7821 31.5125 97.2239 31.4305C96.5897 31.3548 96.2091 30.6986 95.911 30.0865C95.8793 30.0234 95.8222 30.055 95.8096 30.1244C95.5685 31.1213 95.7271 32.2255 96.7736 32.6104C97.7187 32.9638 98.6193 32.2381 99.095 31.2917C99.1838 31.115 99.0823 30.8058 98.8667 30.8815Z" fill="#444444"/>
<path d="M110.778 34.3141C110.778 34.2573 110.886 34.4214 110.867 34.4908C110.442 36.0871 110.233 37.9864 111.571 38.8508C111.616 38.8824 111.571 38.9581 111.54 38.9392C109.808 38.264 110.119 35.7464 110.778 34.3141Z" fill="#444444"/>
<path d="M112.606 32.9442C115.257 33.3417 114.261 38.5788 111.813 38.2128C109.365 37.8469 110.392 32.6161 112.606 32.9442Z" fill="#444444"/>
<path d="M113.639 33.5C114.001 33.8534 114.318 34.4339 114.813 34.5601C115.308 34.6863 115.91 34.2193 116.379 33.7461C116.43 33.6956 116.462 33.7461 116.456 33.8155C116.291 34.8251 115.758 35.8031 114.756 35.8157C113.754 35.8283 113.36 34.844 113.31 33.8029C113.297 33.6073 113.494 33.3549 113.639 33.5Z" fill="#444444"/>
<path d="M100.477 45.4036C100.762 45.8768 101.003 46.4951 101.574 46.6655C102.172 46.8123 102.794 46.8338 103.401 46.7286C103.414 46.7238 103.429 46.724 103.442 46.7291C103.455 46.7343 103.465 46.744 103.472 46.7565C103.478 46.769 103.479 46.7834 103.476 46.7968C103.472 46.8103 103.463 46.822 103.452 46.8296C103.137 47.0802 102.759 47.2418 102.36 47.2974C101.96 47.3529 101.553 47.3003 101.181 47.145C100.877 46.9752 100.631 46.7184 100.475 46.4079C100.319 46.0975 100.26 45.7476 100.306 45.4036C100.306 45.3341 100.445 45.3341 100.477 45.4036Z" fill="#444444"/>
<path d="M106.542 42.258C106.542 42.258 106.371 44.7377 106.13 45.8798C106.13 45.9871 105.819 45.9745 105.426 45.9177C105.419 45.9223 105.412 45.9248 105.404 45.9248C105.396 45.9248 105.388 45.9223 105.381 45.9177C104.362 45.8903 103.37 45.5851 102.514 45.0355C101.657 44.4858 100.968 43.7128 100.523 42.8006C100.51 42.7741 100.508 42.7439 100.516 42.7157C100.525 42.6876 100.543 42.6634 100.568 42.6479C100.593 42.6323 100.623 42.6264 100.652 42.6313C100.681 42.6362 100.707 42.6516 100.726 42.6745C101.976 43.9732 103.617 44.8324 105.4 45.1226C105.546 44.8261 105.546 40.8636 105.73 40.8888C106.604 41.149 107.439 41.5269 108.21 42.0119C108.718 36.8506 108.388 31.6513 108.971 26.5215C108.971 26.4796 108.988 26.4395 109.018 26.4099C109.047 26.3804 109.088 26.3637 109.13 26.3637C109.172 26.3637 109.212 26.3804 109.242 26.4099C109.272 26.4395 109.288 26.4796 109.288 26.5215C110.018 31.9479 109.561 37.879 109.174 43.2423C109.136 43.8922 106.961 42.5483 106.542 42.258Z" fill="#444444"/>
<path d="M76.7383 31.0517C82.3197 32.1875 83.9942 23.4106 83.9942 23.4106C83.9942 23.4106 90.4445 24.0416 92.9054 13.9775C92.9054 13.9775 94.7511 20.7163 103.098 23.6314C104.867 24.2624 99.6856 18.3754 99.6856 18.3754C99.6856 18.3754 105.705 26.3699 119.76 26.5024C120.749 26.5024 122.633 11.8069 112.948 4.89146C103.263 -2.02403 92.0175 -1.05233 84.0957 4.34882C84.0957 4.34882 76.4846 7.01154 74.1823 14.1857C71.8799 21.3599 74.5692 30.61 76.7383 31.0517Z" fill="#444444"/>
<path d="M95.3207 42.0114C93.8634 41.6061 92.5497 40.8022 91.5288 39.691C90.508 38.5798 89.8211 37.206 89.5461 35.7257C89.271 34.2455 89.419 32.7181 89.9732 31.3174C90.5274 29.9166 91.4654 28.6986 92.6808 27.8019C93.8962 26.9052 95.3401 26.3656 96.8484 26.2447C98.3566 26.1238 99.8688 26.4262 101.213 27.1177C102.557 27.8092 103.679 28.862 104.452 30.1564C105.224 31.4507 105.616 32.9348 105.583 34.4397C105.528 36.5658 104.63 38.584 103.086 40.0544C101.541 41.5248 99.475 42.3281 97.3376 42.2891C96.6561 42.2834 95.9782 42.19 95.3207 42.0114ZM99.3862 27.5495C97.9868 27.1639 96.5012 27.2224 95.1368 27.7167C93.7723 28.211 92.5968 29.1166 91.7743 30.3072C90.9518 31.4978 90.5233 32.914 90.5484 34.3584C90.5735 35.8029 91.051 37.2035 91.9144 38.3651C92.7778 39.5267 93.984 40.3913 95.3649 40.8384C96.7457 41.2855 98.2324 41.2928 99.6176 40.8593C101.003 40.4258 102.218 39.5731 103.092 38.4201C103.967 37.2671 104.459 35.8712 104.498 34.4271C104.531 32.8824 104.049 31.3704 103.128 30.1264C102.207 28.8825 100.898 27.9765 99.4053 27.5495H99.3862Z" fill="#EBEBEB"/>
<path d="M113.716 44.7755C110.741 43.9489 108.889 40.163 109.543 36.0175C109.812 34.0326 110.699 32.1814 112.08 30.7236C112.638 30.0646 113.358 29.5601 114.169 29.2587C114.981 28.9573 115.857 28.8692 116.713 29.0031C117.568 29.137 118.375 29.4882 119.054 30.0228C119.734 30.5574 120.263 31.2574 120.591 32.055C121.467 33.8619 121.751 35.8966 121.403 37.8726C120.712 42.2515 117.483 45.4001 114.204 44.889C114.039 44.8624 113.876 44.8245 113.716 44.7755ZM116.976 30.1494C116.845 30.1103 116.712 30.0808 116.576 30.0611C115.89 29.9869 115.196 30.0771 114.551 30.3241C113.907 30.571 113.331 30.9676 112.872 31.4808C111.646 32.7762 110.855 34.419 110.608 36.1816C110.012 39.9674 111.705 43.4062 114.414 43.829C117.122 44.2517 119.779 41.5007 120.382 37.7085C120.692 35.955 120.446 34.149 119.678 32.5408C119.418 31.9727 119.04 31.4658 118.569 31.0536C118.098 30.6414 117.544 30.3332 116.944 30.1494H116.976Z" fill="#EBEBEB"/>
<path d="M105.191 35.3294L104.633 34.4082C106.003 33.5816 109.016 32.6604 110.64 35.0392L109.745 35.6702C108.293 33.5122 105.318 35.2537 105.191 35.3294Z" fill="#EBEBEB"/>
<path d="M69.2796 31.79L68.4106 31.159C68.7087 30.7552 71.3916 27.2091 73.8399 27.1965C76.1232 27.1965 90.2226 30.7615 90.8251 30.9129L90.5524 31.9541C86.5122 30.9256 75.6094 28.2628 73.8462 28.2692C72.2288 28.3007 70.0026 30.8372 69.2796 31.79Z" fill="#EBEBEB"/>
<path d="M78.6354 33.0959C78.6354 33.0959 75.09 24.5588 71.3098 25.6567C67.5297 26.7546 69.0392 38.3267 72.6671 40.6676C73.1118 40.9996 73.6195 41.2387 74.1595 41.3705C74.6995 41.5022 75.2607 41.524 75.8093 41.4344C76.358 41.3448 76.8828 41.1457 77.3521 40.8491C77.8214 40.5525 78.2256 40.1646 78.5403 39.7085L78.6354 33.0959Z" fill="#D59072"/>
<path d="M71.8537 28.9635C71.8412 28.9614 71.8283 28.9635 71.8171 28.9696C71.8059 28.9756 71.797 28.9852 71.7919 28.9968C71.7868 29.0084 71.7857 29.0213 71.7889 29.0336C71.7921 29.0459 71.7992 29.0567 71.8093 29.0645C74.3463 30.7997 75.2216 33.6769 75.6466 36.5542C75.0504 35.3553 74.0546 34.5477 72.4753 35.2165C72.4591 35.226 72.4463 35.2405 72.4389 35.2577C72.4315 35.275 72.4298 35.2941 72.434 35.3124C72.4383 35.3306 72.4482 35.3471 72.4625 35.3594C72.4767 35.3716 72.4946 35.379 72.5133 35.3806C73.0365 35.3332 73.5616 35.4486 74.016 35.7108C74.4705 35.973 74.8319 36.3691 75.0504 36.8444C75.4156 37.6379 75.6901 38.4697 75.8685 39.3241C75.9447 39.5955 76.4203 39.5639 76.3886 39.261C76.3886 39.261 76.3886 39.2169 76.3886 39.1916C77.1941 35.6897 75.5451 30.1561 71.8537 28.9635Z" fill="#444444"/>
<path d="M90.1524 63.7359L86.7401 74.8159L72.2094 62.3983L68.7908 67.0612C68.7908 67.0612 83.7147 87.4858 83.7147 86.5015L87.3617 76.8981L94.3385 82.7788L92.4357 66.7015L90.1524 63.7359Z" fill="#EBEBEB"/>
<path d="M93.8257 74.7782C93.4261 72.1345 93.0963 69.4591 92.5572 66.8343C92.5572 66.7459 92.386 66.7144 92.3733 66.8343C92.0562 69.4465 93.6418 79.5484 93.8447 81.9777C93.553 81.719 87.4261 76.8289 87.3754 76.9299C86.5382 78.4758 83.8553 85.4733 83.684 86.1042C81.3246 82.861 71.3922 70.1216 68.6649 67.0993C68.6582 67.0893 68.6497 67.0808 68.6397 67.0741C68.6297 67.0675 68.6185 67.0629 68.6067 67.0605C68.5949 67.0582 68.5828 67.0582 68.571 67.0605C68.5592 67.0628 68.548 67.0674 68.538 67.074C68.5281 67.0807 68.5195 67.0892 68.5128 67.0991C68.5061 67.109 68.5014 67.1202 68.4991 67.1319C68.4967 67.1436 68.4967 67.1557 68.4991 67.1674C68.5014 67.1791 68.506 67.1903 68.5127 67.2002C70.6501 70.658 83.5191 87.4861 83.6713 87.4293C85.1161 84.1132 86.3863 80.7244 87.4768 77.2769C88.5361 78.3622 94.7771 83.9463 94.7644 83.5488C94.6086 80.6107 94.2952 77.6831 93.8257 74.7782Z" fill="#444444"/>
<path d="M67.7449 84.792C62.1 108.984 46.1105 136.046 35.9878 144.003C29.8229 148.842 10.0912 148.886 9.20964 136.185C8.32803 123.483 47.0682 83.6751 52.7701 75.9331C58.4721 68.191 72.8443 62.9665 67.7449 84.792Z" fill="#D59072"/>
<path d="M67.7449 84.792C62.1 108.984 46.1105 136.046 35.9878 144.003C29.8229 148.842 10.0912 148.886 9.20964 136.185C8.32803 123.483 47.0682 83.6751 52.7701 75.9331C58.4721 68.191 72.8443 62.9665 67.7449 84.792Z" fill="url(#paint4_linear_1_10673)"/>
<path d="M23.1498 139.144C22.2448 139.474 21.3908 139.929 20.6128 140.495C21.5809 140.418 22.5333 140.206 23.4415 139.864C24.3613 139.541 25.2288 139.086 26.0166 138.513C25.0352 138.584 24.0694 138.796 23.1498 139.144ZM57.0062 77.9399C56.1012 78.2697 55.2472 78.7243 54.4692 79.2902C55.4374 79.2139 56.3898 79.0014 57.298 78.6592C58.2177 78.336 59.0852 77.8811 59.873 77.3089C58.8927 77.3782 57.9273 77.5864 57.0062 77.9272V77.9399ZM44.7842 112.013C43.8794 112.34 43.0254 112.793 42.2472 113.356C44.1931 113.175 46.0568 112.487 47.651 111.363C46.6689 111.437 45.7031 111.654 44.7842 112.006V112.013ZM35.1245 101.198C34.8091 100.277 34.3627 99.4055 33.7989 98.6106C33.8756 99.5758 34.0891 100.525 34.4332 101.431C34.7595 102.345 35.2166 103.208 35.7905 103.993C35.7019 103.035 35.4777 102.093 35.1245 101.198ZM19.357 125.269C19.0282 124.356 18.5712 123.494 17.9997 122.708C18.1833 124.645 18.8743 126.501 20.0039 128.09C19.9232 127.124 19.7054 126.174 19.357 125.269ZM41.4099 135.807C41.4635 136.572 41.617 137.327 41.8666 138.053L42.3677 137.422C42.1089 136.85 41.7878 136.308 41.4099 135.807ZM64.5348 92.3135C64.2059 91.4022 63.749 90.5418 63.1775 89.758C63.2511 90.7216 63.4648 91.6695 63.8118 92.5722C64.0894 93.3402 64.4532 94.0747 64.8963 94.7617C64.9471 94.5976 65.0042 94.4399 65.0549 94.2758C64.935 93.6082 64.7589 92.9518 64.5285 92.3135H64.5348ZM28.5219 112.555C27.6413 112.141 26.7059 111.855 25.7439 111.703C26.4861 112.329 27.3148 112.846 28.2048 113.237C29.0851 113.652 30.0205 113.941 30.9828 114.095C30.2384 113.47 29.4101 112.952 28.5219 112.555ZM47.1563 96.1498C46.7355 97.0245 46.4449 97.9555 46.2937 98.9135C46.9233 98.1732 47.4423 97.3465 47.8349 96.459C48.2565 95.5868 48.5472 94.6578 48.6975 93.7016C48.0653 94.4516 47.5462 95.289 47.1563 96.1877V96.1498ZM33.9765 126.317C33.5577 127.192 33.2672 128.123 33.1139 129.08C34.3608 127.58 35.1897 125.781 35.5177 123.862C34.8896 124.604 34.3707 125.43 33.9765 126.317ZM9.65923 134.784C9.49432 135.157 9.33576 135.535 9.20257 135.926C9.19615 136.01 9.19615 136.095 9.20257 136.179C9.20257 136.438 9.24696 136.696 9.27868 136.942C9.68522 136.359 10.0376 135.74 10.3315 135.094C10.7475 134.217 11.0379 133.287 11.1941 132.33C10.5668 133.071 10.0499 133.897 9.65923 134.784Z" fill="white"/>
<path d="M18.9265 145.845C21.5846 146.273 24.2935 146.288 26.9562 145.889C29.5639 145.468 32.0722 144.576 34.3579 143.258C39.1909 140.495 42.4256 135.813 45.2988 131.207C48.4489 126.159 51.4087 120.989 54.1783 115.697C56.9373 110.416 59.468 105.015 61.9099 99.5821C63.1467 96.8437 64.2693 94.0674 65.4426 91.3037C66.616 88.5401 67.726 85.8079 68.7471 83.0127C69.0072 82.306 69.2482 81.5993 69.4955 80.8926C69.4997 80.8793 69.5091 80.8681 69.5216 80.8616C69.5341 80.8551 69.5487 80.8538 69.5621 80.8579C69.5756 80.8621 69.5868 80.8715 69.5934 80.8839C69.5999 80.8963 69.6012 80.9108 69.597 80.9242C68.6837 83.814 67.8148 86.7355 66.8317 89.6001C66.7048 89.9724 66.5653 90.3447 66.4321 90.7169C67.4532 88.5527 68.4997 86.401 69.6033 84.2747C69.6668 84.1485 69.8444 84.2747 69.7936 84.3882C68.8169 86.5966 67.8021 88.8051 66.7619 90.9567C66.246 92.0293 65.7281 93.0978 65.208 94.1621C64.7133 95.4871 64.1995 96.8184 63.6731 98.1372C61.4025 103.791 58.8781 109.324 56.1001 114.738C53.3221 120.152 50.3284 125.454 47.1191 130.645C44.1825 135.422 41.0302 140.331 36.2797 143.517C31.7294 146.558 26.1515 147.677 20.7722 146.628C20.1261 146.491 19.4904 146.309 18.8694 146.085C18.8435 146.073 18.8225 146.052 18.8101 146.026C18.7977 146 18.7946 145.97 18.8013 145.942C18.8079 145.914 18.824 145.89 18.8467 145.872C18.8695 145.854 18.8977 145.845 18.9265 145.845Z" fill="#444444"/>
<path d="M28.3638 48.7506C32.3913 39.002 38.9241 25.6317 43.3131 23.5873C47.9305 21.4609 64.4655 14.6464 68.8228 14.2993C73.1801 13.9523 88.6305 18.4449 91.4212 21.1707C93.6474 23.3538 89.7848 28.5531 80.9814 27.8085C72.7361 27.1081 70.8334 26.5466 68.4422 26.9062C66.0511 27.2659 58.9792 32.9447 59.6007 36.415C59.9686 38.4531 64.7572 41.9676 68.4803 41.3303C72.2033 40.693 74.4423 37.0712 79.0406 34.9575C83.6389 32.8437 90.2352 34.9575 90.1527 36.8504C90.0703 38.7433 87.6157 39.021 82.6305 44.2581C79.4085 47.6212 77.0871 54.3032 70.3323 59.7864C66.939 62.5374 60.2223 70.4625 60.2223 70.4625L28.3638 48.7506Z" fill="#D59072"/>
<path d="M43.313 23.5873C47.8542 19.3661 58.478 12.3812 67.478 11.359C73.5605 10.6587 90.2223 24.7736 88.7255 28.2503C87.2287 31.7269 83.9813 30.913 79.3068 29.1084C77.607 28.4774 69.1588 22.7545 67.0975 24.2877C64.1038 26.4898 58.7507 35.2667 58.7507 35.2667L43.313 23.5873Z" fill="#D59072"/>
<path d="M88.6302 26.7418C87.2793 22.2619 82.6429 18.8672 77.9177 15.9143C77.8416 15.8638 77.7655 15.9774 77.8416 16.0215C79.0403 16.7787 86.4357 22.7667 88.5541 26.786C88.5795 26.8301 88.6429 26.786 88.6302 26.7418Z" fill="#444444"/>
<path d="M43.313 23.5874C47.8542 19.3661 58.478 12.3812 67.478 11.3591C73.5605 10.6587 85.5733 26.3321 84.0828 29.8151C82.5923 33.2981 77.8354 32.3832 73.1356 29.2724C71.6134 28.2629 67.0277 22.9122 64.9474 24.4392C61.9473 26.6413 54.6154 32.1371 54.6154 32.1371L43.313 23.5874Z" fill="#D59072"/>
<path d="M58.9282 28.6983C59.6513 28.0674 59.905 27.8024 60.6407 27.1525C61.3765 26.5025 62.1185 25.8905 62.8987 25.2595C63.5372 24.6873 64.2713 24.2303 65.0678 23.9092C65.8621 23.6907 66.7065 23.7372 67.4716 24.0417C69.2222 24.6727 70.5477 26.2123 71.8416 27.4743C73.2877 28.875 76.4019 31.3484 79.1736 31.7523C79.9222 31.91 80.6956 31.91 81.4442 31.7523C82.0072 31.6533 82.5368 31.417 82.9855 31.0645C84.6599 29.3924 83.7846 26.7676 82.7064 24.7548C80.6895 21.0699 77.5055 17.9591 74.3342 15.2901C73.5541 14.6276 72.7549 13.984 71.9621 13.3404C71.0915 12.5394 70.0574 11.9346 68.9304 11.5674C67.0594 11.0752 63.5012 12.1983 62.4039 12.5138C62.3215 12.5138 62.2961 12.4066 62.4039 12.3813C63.7359 11.9586 67.1926 10.3685 70.1735 11.296C71.2645 11.6368 72.1524 12.4634 73.0467 13.1511C73.941 13.8389 74.8987 14.6276 75.793 15.4037C77.5469 16.8951 79.1799 18.5217 80.6768 20.2685C82.0785 21.928 83.5436 23.8209 84.2413 25.9031C84.8755 27.7077 84.5838 29.9792 83.1821 31.3484C82.0024 32.5031 80.1567 32.3832 79.3195 32.2823C78.5018 32.1792 77.7018 31.9669 76.941 31.6513C75.2779 30.8237 73.6774 29.8769 72.1524 28.8182C70.6809 27.7519 69.4886 26.2943 67.9346 25.3352C67.5724 25.0965 67.1659 24.9322 66.7389 24.852C66.3119 24.7719 65.8731 24.7774 65.4484 24.8683C64.6396 25.1503 63.8783 25.5524 63.1904 26.0609C61.7774 26.8734 60.4439 27.8155 59.2073 28.875C58.8458 29.1527 58.6238 28.976 58.9282 28.6983Z" fill="#444444"/>
<path d="M39.7861 27.3734C41.5938 25.2786 46.1287 15.8897 48.8559 13.3468C51.5832 10.804 63.0505 2.55714 67.0273 4.05886C72.0252 5.95179 64.2746 13.8011 60.596 16.9055C56.9173 20.0099 55.7059 26.591 55.7059 26.591L39.7861 27.3734Z" fill="#D59072"/>
<path d="M65.9815 11.5981C64.713 12.5572 63.5206 13.674 62.3536 14.753C61.1867 15.7237 60.0929 16.7782 59.0808 17.9079C58.1682 19.1025 57.461 20.4394 56.9878 21.8641C56.7341 22.5582 56.5311 23.2649 56.3535 23.9779C56.176 24.6909 56.0111 25.5616 55.7891 26.3314C55.7891 26.4134 55.8905 26.4639 55.9159 26.3756C56.3797 24.9749 56.9326 23.605 57.5713 22.2742C58.2057 20.8857 59.0064 19.5785 59.9561 18.3811C61.8589 16.0087 64.231 14.0716 66.1464 11.7117C66.2162 11.636 66.0767 11.5287 65.9815 11.5981Z" fill="#444444"/>
<path d="M66.6081 41.3175C68.3139 41.4161 69.9918 40.8529 71.2889 39.7464C72.5067 38.8378 73.6673 37.8535 74.8914 36.9512C76.0737 36.0043 77.3875 35.2329 78.7921 34.6608C80.4148 34.1507 82.1015 33.8703 83.8027 33.8279C85.4431 33.6537 87.1012 33.8946 88.623 34.5282C89.8535 35.1087 91.16 36.377 90.4814 37.8661C90.1386 38.5341 89.6691 39.1298 89.0987 39.6202C88.5641 40.1255 87.9916 40.5895 87.3862 41.0084C86.1748 41.8728 84.8873 42.6489 83.7583 43.6332C82.2551 44.9456 81.2213 46.7313 80.1177 48.3781C79.7054 49.0091 77.0733 53.1357 76.0712 54.5428C75.2306 55.7415 74.2862 56.8647 73.2487 57.8996C72.2219 58.8379 71.1396 59.7145 70.0077 60.5244C68.7721 61.3998 67.6382 62.4093 66.6271 63.5342C66.5827 63.591 66.5066 63.5342 66.5383 63.4585C67.8068 61.1365 70.1282 59.578 72.2466 58.0384C74.9549 56.0445 80.9676 45.747 82.0585 44.3462C83.8725 42.0179 86.6251 40.9011 88.6928 38.8757C89.1685 38.4087 89.8979 37.7462 89.8852 37.0143C89.8264 36.6664 89.6789 36.3392 89.4569 36.0642C89.2348 35.7891 88.9455 35.5753 88.6167 35.4432C87.196 34.6923 85.4454 34.7428 83.8979 34.8942C82.2705 34.9756 80.6577 35.2402 79.0902 35.6829C77.723 36.1714 76.4297 36.8444 75.2466 37.6831C73.8893 38.617 72.5891 39.576 71.162 40.4215C69.8076 41.3074 68.1748 41.6708 66.5701 41.4437C66.4939 41.4248 66.532 41.3112 66.6081 41.3175Z" fill="#444444"/>
<path d="M88.8462 19.9213C87.7617 19.3913 86.6834 18.8171 85.5798 18.3186C85.5798 18.3186 85.5798 18.2555 85.5798 18.2681C86.8864 18.7855 88.231 19.2146 89.5439 19.7194C90.5841 20.1169 91.656 20.6974 92.0809 21.7826C92.2476 22.2907 92.2767 22.8335 92.1653 23.3564C92.054 23.8792 91.8061 24.3636 91.4467 24.7609C90.6406 25.6007 89.663 26.259 88.5798 26.6916C88.5228 26.7232 88.4784 26.6348 88.5355 26.6033C90.1147 25.6947 92.563 23.8649 91.2754 21.7763C90.6559 20.9443 89.8143 20.3016 88.8462 19.9213Z" fill="#444444"/>
<path d="M83.5628 30.3894C84.7996 30.4273 86.1696 30.3894 87.2668 29.7584C87.6351 29.5568 87.9497 29.2707 88.1847 28.924C88.4196 28.5772 88.5681 28.1798 88.6178 27.7645C88.684 27.4631 88.6413 27.1481 88.4973 26.8749C88.4466 26.8118 88.5671 26.755 88.5861 26.8307C88.6412 26.9946 88.7069 27.1548 88.7827 27.3102C88.8295 27.4495 88.8613 27.5934 88.8778 27.7393C88.9089 28.0293 88.8852 28.3224 88.8081 28.6037C88.6258 29.2162 88.2387 29.7482 87.7108 30.1118C86.474 30.9951 84.9391 30.9131 83.5438 30.503C83.4867 30.4777 83.4994 30.3894 83.5628 30.3894Z" fill="#444444"/>
<path d="M60.2105 70.4753C57.5086 80.1733 36.9715 131.894 31.2632 139.195C25.5549 146.495 11.6711 148.066 7.79584 134.873C3.92056 121.679 24.0961 58.6192 28.3583 48.7508C30.7368 43.2613 61.1809 66.9607 60.2105 70.4753Z" fill="#D59072"/>
<path d="M64.7 77.0122L24.3995 53.7607C24.3995 53.7607 7.16053 112.587 6.85609 130.727C6.6341 143.744 22.3192 153.474 34.7125 135.876C47.1058 118.278 64.7 77.0122 64.7 77.0122Z" fill="url(#paint5_linear_1_10673)"/>
<path d="M25.6297 54.5049C25.0287 55.2283 24.5274 56.0283 24.1392 56.8837C23.7233 57.7598 23.435 58.6904 23.283 59.6474C23.912 58.909 24.4311 58.0845 24.8242 57.1992C25.2305 56.3442 25.5165 55.4376 25.6741 54.5049H25.6297ZM12.6402 110.599C12.2243 111.475 11.936 112.405 11.784 113.362C12.413 112.624 12.9321 111.799 13.3252 110.914C13.7443 110.034 14.0348 109.099 14.1878 108.138C13.5604 108.883 13.0396 109.711 12.6402 110.599ZM9.65921 134.784C9.24043 135.659 8.94995 136.59 8.79663 137.548C9.42396 136.807 9.94089 135.98 10.3315 135.093C10.7475 134.217 11.0379 133.286 11.1941 132.329C10.5668 133.07 10.0498 133.897 9.65921 134.784ZM33.9765 126.316C33.5577 127.192 33.2672 128.122 33.1139 129.08C34.3607 127.58 35.1897 125.781 35.5177 123.862C34.8896 124.603 34.3707 125.43 33.9765 126.316ZM47.5241 67.1244C47.5241 67.1812 47.5241 67.2443 47.5241 67.3011L47.6319 67.1686L47.5241 67.1244ZM47.1562 96.2061C46.7355 97.0808 46.4449 98.0118 46.2937 98.9697C46.9232 98.2295 47.4423 97.4028 47.8349 96.5152C48.2565 95.6431 48.5472 94.7141 48.6975 93.7579C48.07 94.4904 47.551 95.3084 47.1562 96.1871V96.2061ZM28.5726 89.6187C28.1528 90.4871 27.8622 91.4117 27.7101 92.3634C28.9504 90.8595 29.7785 89.0618 30.1139 87.1453C29.4858 87.8866 28.9669 88.7131 28.5726 89.5998V89.6187ZM42.374 82.6464C41.4936 82.2306 40.5582 81.9416 39.596 81.7883C40.3362 82.4184 41.1653 82.9371 42.0569 83.3279C42.9385 83.7351 43.8739 84.0155 44.8349 84.1608C44.0919 83.5361 43.2633 83.0198 42.374 82.6275V82.6464ZM28.5219 112.555C27.6412 112.141 26.7058 111.854 25.7439 111.703C26.4861 112.329 27.3148 112.845 28.2048 113.236C29.0851 113.652 30.0205 113.941 30.9828 114.094C30.2384 113.47 29.4101 112.952 28.5219 112.555ZM22.4965 75.5921C21.6167 75.1748 20.6811 74.8858 19.7185 74.734C21.2262 75.9744 23.035 76.799 24.9637 77.1254C24.217 76.5094 23.3863 76.0017 22.4965 75.6173V75.5921ZM19.3252 125.244C18.9964 124.33 18.5395 123.468 17.9679 122.682C18.1515 124.619 18.8426 126.475 19.9722 128.064C19.8993 127.108 19.6923 126.167 19.3569 125.269L19.3252 125.244ZM35.1245 101.197C34.8091 100.276 34.3627 99.405 33.7989 98.6101C33.8755 99.5753 34.0891 100.525 34.4331 101.431C34.7595 102.345 35.2166 103.208 35.7904 103.992C35.7019 103.034 35.4777 102.093 35.1245 101.197ZM44.7841 112.031C43.8794 112.359 43.0254 112.811 42.2471 113.375C44.1931 113.193 46.0567 112.506 47.651 111.381C46.6699 111.449 45.7041 111.66 44.7841 112.006V112.031ZM17.8664 97.9602C16.9604 98.2876 16.106 98.7423 15.3294 99.3105C16.2992 99.2312 17.2533 99.0188 18.1645 98.6795C19.0706 98.3521 19.925 97.8974 20.7016 97.3292C19.7309 97.4025 18.776 97.615 17.8664 97.9602ZM33.6403 68.5378C32.7223 68.8649 31.8553 69.3195 31.0653 69.8881C32.0355 69.8118 32.99 69.5994 33.9004 69.2571C34.8195 68.9325 35.6868 68.4777 36.4754 67.9068C35.5051 67.9824 34.5505 68.1949 33.6403 68.5378ZM57.0062 77.9267C56.1012 78.2566 55.2472 78.7111 54.4692 79.277C55.4373 79.2007 56.3898 78.9883 57.298 78.646C58.2177 78.3229 59.0852 77.868 59.873 77.2957C58.8921 77.3691 57.9267 77.5815 57.0062 77.9267ZM23.1498 139.131C22.2448 139.461 21.3908 139.916 20.6128 140.482C21.5809 140.405 22.5333 140.193 23.4415 139.851C24.3613 139.527 25.2288 139.073 26.0166 138.5C25.0346 138.575 24.0687 138.791 23.1498 139.144V139.131Z" fill="white"/>
<path d="M59.1696 84.1612C53.0681 80.899 28.5732 66.6642 23.4928 63.2317C23.1376 62.992 23.2074 62.708 23.607 62.9099C42.1526 72.2231 53.4613 80.3753 59.3091 83.9025C59.455 83.9908 59.3472 84.2306 59.1696 84.1612Z" fill="#444444"/>
<path d="M46.2741 115.344C50.5299 107.393 54.6209 99.3611 58.3249 91.1269C59.3524 88.8217 60.3587 86.5081 61.3439 84.1861C62.289 81.9525 63.2467 79.7125 64.0966 77.441C63.253 76.8542 59.549 74.4439 59.1494 74.0716C59.0289 73.9643 59.1494 73.7561 59.3143 73.8066C59.809 73.9896 64.1093 76.4693 65.0226 77.1445C65.1558 77.2391 63.3228 81.6685 62.4856 83.7886C61.6484 85.9087 60.7985 88.0162 59.9105 90.0984C58.1515 94.2502 56.2911 98.3536 54.3291 102.409C52.217 106.788 50.0098 111.104 47.6694 115.35C45.6271 119.01 40.7751 125.584 46.2741 115.344Z" fill="#444444"/>
<path d="M209.087 180.946C209.087 180.946 216.99 182.012 217.281 176.592C217.573 171.172 209.601 171.387 209.601 171.387L209.087 180.946Z" fill="#DD6A57"/>
<path d="M153.932 168.426L153.415 177.984L209.421 180.982L209.938 171.424L153.932 168.426Z" fill="url(#paint6_linear_1_10673)"/>
<path d="M208.057 170.526L207.454 181.685L209.677 181.804L210.28 170.645L208.057 170.526Z" fill="#444444"/>
<path d="M205.592 170.39L204.988 181.548L207.217 181.668L207.821 170.509L205.592 170.39Z" fill="#444444"/>
<path d="M153.914 168.409L146.81 171.633L144.463 172.687L146.683 174.012L153.4 177.974L154.846 177.084L153.501 176.062L154.947 175.166L153.603 174.15L155.049 173.273C155.049 173.273 153.73 172.258 153.711 172.232L155.157 171.362L153.812 170.32L155.258 169.45L153.914 168.409Z" fill="#EBEBEB"/>
<path d="M146.81 171.633L144.463 172.687L146.683 174.012L146.81 171.633Z" fill="#444444"/>
<path d="M107.258 163.324L115.471 184.424H40.4963L49.4583 163.349L107.258 163.324Z" fill="url(#paint7_linear_1_10673)"/>
<path d="M107.854 164.856L115.471 184.423V188.001H40.4963V184.423L48.8114 164.875L107.854 164.856Z" fill="url(#paint8_linear_1_10673)"/>
<path opacity="0.1" d="M107.258 163.324L115.471 184.424H40.4963L49.4583 163.349L107.258 163.324Z" fill="#444444"/>
<path d="M69.5575 178.744L69.0881 182.802H59.9802L60.8555 178.744H69.5575Z" fill="white"/>
<path d="M70.0971 174.151L69.6214 178.208H60.9766L61.8582 174.151H70.0971Z" fill="white"/>
<path d="M70.6295 169.557L70.1601 173.615H61.9719L62.8535 169.557H70.6295Z" fill="url(#paint9_linear_1_10673)"/>
<path d="M71.1694 164.964L70.6937 169.015L62.9749 169.021L63.8565 164.964H71.1694Z" fill="url(#paint10_linear_1_10673)"/>
<path d="M79.5417 178.744L79.5354 182.802H70.4275L70.8398 178.744H79.5417Z" fill="#444444"/>
<path d="M79.5416 174.151V178.208H70.8967L71.309 174.151H79.5416Z" fill="#444444"/>
<path d="M79.5466 169.557V173.608H71.3584L71.7707 169.557H79.5466Z" fill="#444444"/>
<path d="M79.6048 164.958V169.015H71.886L72.2919 164.964L79.6048 164.958Z" fill="white"/>
<path d="M89.5181 178.744L89.9811 182.802H80.8732L80.8162 178.744H89.5181Z" fill="#444444"/>
<path d="M88.9921 174.151L89.4551 178.202L80.8103 178.208L80.7532 174.151H88.9921Z" fill="#444444"/>
<path d="M88.4647 169.551L88.9277 173.608H80.7458L80.6887 169.557L88.4647 169.551Z" fill="#444444"/>
<path d="M87.9374 164.958L88.4005 169.015H80.6816L80.6245 164.958H87.9374Z" fill="white"/>
<path d="M99.4996 178.744L100.432 182.802H91.3177L90.7976 178.744H99.4996Z" fill="#444444"/>
<path d="M98.4418 174.145L99.3742 178.202H90.7293L90.2029 174.151L98.4418 174.145Z" fill="#444444"/>
<path d="M97.3824 169.551L98.3147 173.608H90.1329L89.6064 169.551H97.3824Z" fill="#444444"/>
<path d="M96.3303 164.951L97.2626 169.008L89.5374 169.014L89.0173 164.957L96.3303 164.951Z" fill="white"/>
<path d="M109.479 178.744L110.88 182.795L101.772 182.802L100.777 178.744H109.479Z" fill="#444444"/>
<path d="M107.892 174.145L109.293 178.202H100.642L99.6526 174.145H107.892Z" fill="#444444"/>
<path d="M106.301 169.545L107.703 173.602L99.5209 173.608L98.5251 169.551L106.301 169.545Z" fill="white"/>
<path d="M104.714 164.951L106.116 169.008H98.3967L97.4009 164.951H104.714Z" fill="white"/>
<path d="M63.9006 181.375C63.5391 181.375 63.2664 181.262 63.2664 181.098C63.2664 180.934 63.6215 180.82 63.9767 180.82C64.3382 180.82 64.611 180.927 64.611 181.098C64.611 181.268 64.2431 181.375 63.9006 181.375ZM63.9704 180.972C63.7611 180.972 63.5835 181.022 63.5644 181.098C63.5454 181.174 63.7167 181.224 63.9196 181.224C64.1289 181.224 64.3065 181.174 64.3192 181.098C64.3319 181.022 64.1733 180.972 63.9704 180.972ZM65.6702 181.18L63.482 180.41C63.4376 180.41 63.4186 180.372 63.4249 180.347C63.4313 180.322 63.501 180.284 63.5771 180.284H63.6723L65.8668 181.06C65.9048 181.06 65.9239 181.098 65.9239 181.117C65.9239 181.136 65.8478 181.186 65.7653 181.186C65.7335 181.191 65.701 181.189 65.6702 181.18ZM65.353 180.662C64.9915 180.662 64.7188 180.549 64.7188 180.385C64.7188 180.221 65.0676 180.107 65.4165 180.107C65.7717 180.107 66.0507 180.221 66.0507 180.385C66.0507 180.549 65.7082 180.662 65.353 180.662ZM65.4165 180.252C65.2072 180.252 65.0296 180.309 65.0169 180.385C65.0042 180.461 65.1691 180.511 65.3657 180.511C65.575 180.511 65.7526 180.461 65.7653 180.385C65.778 180.309 65.6131 180.252 65.4165 180.252Z" fill="#444444"/>
<path d="M66.0056 172.611C65.3397 172.611 64.8513 172.334 64.9147 171.98C64.9393 171.896 64.9813 171.818 65.0381 171.75C65.0949 171.683 65.1652 171.628 65.2445 171.589C65.3298 171.554 65.4256 171.554 65.5109 171.589C65.587 171.621 65.5934 171.684 65.5109 171.722C65.4552 171.747 65.4058 171.785 65.3664 171.832C65.3269 171.879 65.2983 171.934 65.2826 171.993C65.2754 172.057 65.2895 172.121 65.3228 172.176C65.3561 172.23 65.4066 172.273 65.4665 172.296C65.6415 172.383 65.8353 172.427 66.031 172.422C66.2387 172.424 66.4443 172.381 66.6336 172.296C66.7026 172.272 66.7649 172.231 66.8155 172.179C66.8662 172.126 66.9038 172.063 66.9253 171.993C66.9304 171.939 66.9199 171.885 66.8952 171.837C66.8705 171.789 66.8325 171.749 66.7858 171.722C66.735 171.684 66.7541 171.621 66.8429 171.589C66.8839 171.572 66.9282 171.563 66.9729 171.563C67.0176 171.563 67.0618 171.572 67.1029 171.589C67.1696 171.63 67.2238 171.687 67.2596 171.756C67.2954 171.825 67.3114 171.903 67.3059 171.98C67.2615 172.334 66.6779 172.611 66.0056 172.611Z" fill="#444444"/>
<path d="M67.2489 171.236H65.2954C65.194 171.236 65.1242 171.192 65.1305 171.141L65.232 170.599C65.232 170.548 65.3271 170.504 65.4286 170.504C65.5301 170.504 65.6062 170.548 65.5999 170.599L65.5174 171.053H66.1517L66.2151 170.662C66.2151 170.611 66.3166 170.567 66.4117 170.567C66.5069 170.567 66.5893 170.611 66.583 170.662L66.5195 171.053H67.1538L67.2299 170.599C67.2299 170.548 67.325 170.504 67.4265 170.504C67.528 170.504 67.5978 170.548 67.5914 170.599L67.509 171.141C67.4138 171.236 67.3441 171.236 67.2489 171.236Z" fill="#444444"/>
<path d="M66.8757 167.519C66.2414 167.519 65.7975 167.235 65.8545 166.888C65.8776 166.805 65.9177 166.727 65.9723 166.66C66.0268 166.592 66.0947 166.537 66.1717 166.497C66.2107 166.48 66.2528 166.471 66.2954 166.471C66.3379 166.471 66.38 166.48 66.419 166.497C66.4951 166.535 66.4951 166.598 66.419 166.636C66.3637 166.661 66.3149 166.699 66.2764 166.746C66.2379 166.793 66.2108 166.848 66.197 166.907C66.1935 166.968 66.2077 167.03 66.238 167.083C66.2684 167.137 66.3136 167.181 66.3683 167.21C66.5304 167.294 66.7118 167.336 66.8947 167.33C67.0896 167.333 67.2828 167.292 67.4592 167.21C67.5251 167.183 67.5843 167.142 67.6325 167.089C67.6807 167.037 67.7168 166.975 67.7383 166.907C67.744 166.854 67.7345 166.8 67.7109 166.752C67.6874 166.704 67.6507 166.664 67.6051 166.636C67.5607 166.598 67.6051 166.535 67.6622 166.497C67.7005 166.477 67.7429 166.467 67.7859 166.467C67.8288 166.467 67.8712 166.477 67.9095 166.497C67.9732 166.539 68.024 166.598 68.0565 166.667C68.0889 166.736 68.1017 166.812 68.0935 166.888C68.0491 167.235 67.5036 167.519 66.8757 167.519Z" fill="#444444"/>
<path d="M74.0863 180.404L76.2491 180.826C76.3252 180.826 76.3696 180.871 76.3696 180.908C76.3723 180.921 76.3723 180.934 76.3696 180.946C76.2888 180.998 76.1909 181.016 76.0968 180.997L74.1941 180.631V181.066C74.1941 181.117 74.0926 181.161 73.9784 181.161C73.8643 181.161 73.7755 181.117 73.7818 181.066L73.8199 180.486L73.8579 180.448H74.1053L74.0863 180.404Z" fill="white"/>
<path d="M75.7232 175.81C76.1862 175.81 76.554 175.993 76.5413 176.214C76.5287 176.435 76.1481 176.618 75.6851 176.618C75.4411 176.631 75.1993 176.567 74.9938 176.435C74.8819 176.475 74.7637 176.494 74.6449 176.492C74.3278 176.492 74.0741 176.366 74.0804 176.214C74.0868 176.063 74.3595 175.937 74.6766 175.937C74.7933 175.934 74.9095 175.954 75.0191 175.993C75.2308 175.865 75.4756 175.802 75.7232 175.81ZM75.7232 175.993C75.4758 175.993 75.2602 176.094 75.2538 176.214C75.2475 176.334 75.4504 176.429 75.7041 176.435C75.9578 176.441 76.1608 176.334 76.1671 176.214C76.1735 176.094 75.9642 175.993 75.7168 175.993H75.7232ZM74.6576 176.309C74.7718 176.309 74.8606 176.265 74.8669 176.214C74.8733 176.164 74.7781 176.12 74.6703 176.12C74.5625 176.12 74.4737 176.164 74.4737 176.214C74.4737 176.265 74.5498 176.284 74.6513 176.284L74.6576 176.309Z" fill="white"/>
<path d="M75.1718 172.012C74.7215 172.012 74.3727 171.829 74.3853 171.602C74.398 171.375 74.7278 171.217 75.1338 171.198H75.3304C75.5557 171.198 75.7806 171.217 76.0027 171.255C76.203 171.286 76.3937 171.362 76.5608 171.476C76.6018 171.505 76.636 171.543 76.6611 171.586C76.6863 171.63 76.7018 171.678 76.7067 171.728C76.7067 171.779 76.6306 171.823 76.5228 171.823C76.415 171.823 76.3452 171.785 76.3388 171.734C76.3365 171.703 76.3273 171.673 76.312 171.646C76.2966 171.619 76.2755 171.595 76.25 171.577C76.1811 171.527 76.1038 171.491 76.0217 171.469H75.9393C75.9768 171.513 75.997 171.569 75.9963 171.627C75.9837 171.829 75.6158 172.012 75.1718 172.012ZM75.1718 171.829C75.4128 171.829 75.6158 171.728 75.6221 171.602C75.6285 171.476 75.4382 171.381 75.1972 171.381C74.9562 171.381 74.7596 171.482 74.7532 171.602C74.7469 171.722 74.9371 171.829 75.1782 171.829H75.1718Z" fill="white"/>
<path d="M75.8307 167.349C75.7292 167.349 75.6467 167.305 75.6467 167.255V166.725C75.6467 166.674 75.7419 166.624 75.8433 166.624C75.9448 166.624 76.0209 166.674 76.0209 166.725V167.255C76.0209 167.305 75.9321 167.349 75.8307 167.349Z" fill="#444444"/>
<path d="M85.8068 180.322C85.921 180.322 86.0161 180.36 86.0161 180.416H86.2952C86.4094 180.416 86.4982 180.461 86.5045 180.511C86.5109 180.562 86.4221 180.606 86.3079 180.606H86.0288L86.0669 181.129C86.0669 181.129 86.0669 181.167 86.0225 181.186C85.9774 181.206 85.9289 181.215 85.8798 181.215C85.8307 181.215 85.7822 181.206 85.7371 181.186L83.9929 180.555H83.9485H85.6039C85.6039 180.36 85.6927 180.322 85.8068 180.322ZM84.7096 180.618L85.6483 180.953V180.618H84.7096Z" fill="white"/>
<path d="M84.6652 175.955C84.8634 175.863 85.0809 175.82 85.2994 175.829C85.5174 175.826 85.7336 175.869 85.9337 175.955C86.1113 176.037 86.2001 176.145 86.2064 176.252C86.2064 176.359 86.1366 176.466 85.9717 176.548C85.9266 176.567 85.878 176.577 85.829 176.577C85.78 176.577 85.7315 176.567 85.6863 176.548C85.6039 176.51 85.6039 176.447 85.6863 176.41C85.7688 176.372 85.8259 176.309 85.8195 176.252C85.8099 176.214 85.791 176.179 85.7644 176.15C85.7378 176.122 85.7044 176.1 85.6673 176.088C85.5608 176.044 85.4464 176.022 85.3311 176.025C85.2158 176.02 85.1009 176.042 84.995 176.088C84.9601 176.1 84.9295 176.122 84.907 176.151C84.8845 176.18 84.871 176.215 84.8681 176.252C84.8681 176.309 84.9189 176.365 85.014 176.41C85.1092 176.454 85.1028 176.51 85.014 176.548H84.9696H84.8491L83.9294 176.498C83.8798 176.496 83.8316 176.481 83.7899 176.454C83.7859 176.439 83.7859 176.424 83.7899 176.41V175.911C83.7899 175.854 83.8724 175.81 83.9865 175.81C84.1007 175.81 84.1831 175.854 84.1831 175.911V176.321H84.532C84.508 176.288 84.4948 176.248 84.4939 176.208C84.4178 176.145 84.4939 176.037 84.6652 175.955Z" fill="white"/>
<path d="M84.9763 171.192C85.4203 171.192 85.7945 171.375 85.8072 171.602C85.8199 171.829 85.5218 171.987 85.1159 172.012H84.9192C84.6894 172.013 84.46 171.992 84.2343 171.949C84.0259 171.922 83.8263 171.849 83.6507 171.734C83.5627 171.676 83.5013 171.585 83.4795 171.482C83.4795 171.425 83.5493 171.387 83.6507 171.381C83.7522 171.375 83.8347 171.419 83.8474 171.469C83.8516 171.502 83.8628 171.534 83.8803 171.562C83.8978 171.591 83.9212 171.615 83.9488 171.633C84.0236 171.679 84.1048 171.713 84.1899 171.734H84.2786C84.2347 171.69 84.2078 171.632 84.2025 171.57C84.1899 171.375 84.5387 171.192 84.9763 171.192ZM84.9763 171.381C84.7417 171.381 84.545 171.482 84.5514 171.602C84.5577 171.722 84.767 171.823 85.008 171.823C85.2491 171.823 85.4393 171.728 85.4266 171.602C85.414 171.476 85.23 171.381 84.989 171.381H84.9763Z" fill="white"/>
<path d="M84.538 167.311C84.538 167.362 84.4683 167.399 84.3795 167.399C84.2907 167.399 84.2146 167.362 84.2082 167.311L84.1702 166.63C84.1702 166.585 84.2399 166.541 84.3287 166.541C84.4175 166.541 84.4873 166.579 84.4936 166.63L84.538 167.311ZM83.6881 166.857C83.8023 166.857 83.9038 166.907 83.9038 166.97C83.9038 167.033 83.815 167.09 83.7008 167.09C83.5867 167.09 83.4915 167.04 83.4852 166.97C83.4788 166.901 83.5676 166.857 83.6818 166.857H83.6881ZM84.9567 166.857C85.0708 166.857 85.166 166.907 85.166 166.97C85.166 167.033 85.0835 167.09 84.9693 167.09C84.8488 167.09 84.7537 167.033 84.7474 166.97C84.741 166.907 84.8679 166.857 84.982 166.857H84.9567Z" fill="#444444"/>
<path d="M94.3194 180.593H96.5013C96.6154 180.593 96.7106 180.637 96.7233 180.688C96.7359 180.738 96.6535 180.782 96.5393 180.782H94.6873L94.7824 180.845C94.7824 180.845 94.8205 180.883 94.8205 180.896C94.8205 180.908 94.8205 180.959 94.7317 180.972C94.6866 180.991 94.6381 181.001 94.589 181.001C94.5399 181.001 94.4914 180.991 94.4463 180.972L94.1418 180.763H94.3004L94.3194 180.593Z" fill="white"/>
<path d="M95.5808 175.798C95.6949 175.798 95.7837 175.842 95.7964 175.893L95.9106 176.492C95.9125 176.508 95.9083 176.524 95.8989 176.537C95.8895 176.549 95.8755 176.558 95.8598 176.561C95.77 176.596 95.6705 176.596 95.5808 176.561L94.5469 176.057C94.4368 176.009 94.318 175.986 94.1981 175.987C94.0978 175.985 93.9982 176.004 93.9063 176.044C93.8112 176.088 93.7731 176.145 93.7858 176.208C93.7985 176.271 93.8429 176.309 93.9253 176.353L94.0332 176.404C94.1156 176.442 94.1156 176.498 94.0332 176.536C93.9456 176.571 93.848 176.571 93.7604 176.536L93.6526 176.486C93.59 176.464 93.5334 176.429 93.4871 176.381C93.4409 176.334 93.4063 176.277 93.3862 176.214C93.3862 176.101 93.4433 175.994 93.6146 175.911C93.7867 175.838 93.9726 175.801 94.16 175.804C94.379 175.804 94.5954 175.852 94.7943 175.943L95.4285 176.259L95.3588 175.899C95.3968 175.842 95.4729 175.798 95.5808 175.798Z" fill="white"/>
<path d="M93.5068 171.343C93.6773 171.264 93.8644 171.228 94.0523 171.236C94.2594 171.233 94.4648 171.274 94.6548 171.356C94.8324 171.438 94.9339 171.545 94.9529 171.652C94.972 171.76 94.9149 171.867 94.769 171.949C94.7271 171.968 94.6817 171.978 94.6358 171.978C94.5899 171.978 94.5445 171.968 94.5026 171.949C94.4202 171.911 94.4138 171.854 94.5026 171.817C94.5342 171.803 94.5608 171.779 94.5789 171.75C94.597 171.721 94.6058 171.687 94.6041 171.652C94.5901 171.616 94.5681 171.582 94.5395 171.555C94.511 171.528 94.4767 171.507 94.4392 171.495C94.3366 171.445 94.2234 171.421 94.1094 171.425C94.0054 171.42 93.9019 171.444 93.8113 171.495C93.7288 171.539 93.6971 171.596 93.7035 171.652C93.7098 171.709 93.7035 171.703 93.6591 171.722C93.5738 171.757 93.478 171.757 93.3927 171.722L93.0185 171.552L93.0629 171.823C93.0629 171.873 92.9994 171.917 92.8916 171.917C92.7838 171.917 92.695 171.873 92.6887 171.823L92.6062 171.324C92.6062 171.268 92.676 171.23 92.7775 171.23H92.8662H92.917L93.3863 171.444C93.4201 171.404 93.4609 171.37 93.5068 171.343Z" fill="white"/>
<path d="M92.7336 166.699L93.2791 166.901L93.7547 166.699C93.7908 166.683 93.8296 166.675 93.8689 166.675C93.9082 166.675 93.9471 166.683 93.9831 166.699C93.9831 166.699 94.0275 166.737 94.0275 166.756C94.0275 166.775 94.0275 166.806 93.9767 166.831L93.5772 167.002L94.0402 167.166C94.0846 167.166 94.1163 167.21 94.1226 167.235C94.129 167.26 94.1226 167.273 94.1226 167.292C94.0879 167.308 94.05 167.317 94.0116 167.317C93.9732 167.317 93.9353 167.308 93.9006 167.292L93.3425 167.09L92.8668 167.292C92.8308 167.308 92.7919 167.316 92.7526 167.316C92.7133 167.316 92.6745 167.308 92.6385 167.292C92.5814 167.248 92.5877 167.197 92.6385 167.166L93.0317 167.002L92.5814 166.831C92.5053 166.8 92.4799 166.743 92.5243 166.699C92.5574 166.685 92.593 166.678 92.6289 166.678C92.6649 166.678 92.7005 166.685 92.7336 166.699Z" fill="#444444"/>
<path d="M106.402 180.701C106.402 180.631 106.491 180.574 106.643 180.574C106.795 180.574 106.935 180.631 106.96 180.701C106.985 180.771 106.871 180.828 106.719 180.828C106.567 180.828 106.427 180.771 106.402 180.701Z" fill="white"/>
<path d="M104.448 176.662C104.15 176.667 103.853 176.629 103.566 176.548C103.325 176.479 103.129 176.366 103.09 176.233C103.052 176.1 103.186 175.993 103.389 175.924C103.649 175.84 103.921 175.802 104.194 175.81C104.488 175.806 104.78 175.844 105.063 175.924C105.31 175.993 105.513 176.107 105.551 176.233C105.589 176.359 105.456 176.479 105.253 176.548C104.993 176.631 104.721 176.67 104.448 176.662ZM104.251 176C104.037 175.992 103.823 176.018 103.617 176.075C103.484 176.126 103.427 176.183 103.446 176.233C103.465 176.283 103.547 176.347 103.706 176.397C103.913 176.45 104.126 176.478 104.34 176.479C104.544 176.481 104.747 176.454 104.942 176.397C105.076 176.347 105.126 176.29 105.107 176.233C105.088 176.176 105.012 176.126 104.841 176.075C104.648 176.027 104.45 176.002 104.251 176Z" fill="white"/>
<path d="M102.806 171.936C102.705 171.936 102.603 171.892 102.584 171.835L102.438 171.318C102.438 171.261 102.495 171.217 102.597 171.217C102.698 171.217 102.8 171.261 102.819 171.318L102.971 171.835C102.99 171.867 102.933 171.936 102.806 171.936ZM103.44 171.936C103.326 171.936 103.225 171.892 103.212 171.835L103.053 171.318C103.053 171.261 103.117 171.217 103.225 171.217C103.333 171.217 103.434 171.261 103.447 171.318L103.605 171.835C103.612 171.867 103.567 171.936 103.428 171.936H103.44Z" fill="#444444"/>
<path d="M101.784 167.065L101.86 167.305C101.86 167.355 101.809 167.393 101.714 167.393C101.619 167.393 101.524 167.355 101.511 167.305L101.441 167.065H101.029C100.934 167.065 100.839 167.021 100.826 166.97C100.813 166.92 100.877 166.869 100.978 166.869H101.409L101.34 166.63C101.34 166.579 101.39 166.535 101.485 166.535C101.581 166.535 101.669 166.579 101.682 166.63L101.752 166.869H102.189C102.23 166.865 102.27 166.872 102.307 166.889C102.344 166.905 102.375 166.931 102.399 166.964C102.399 167.021 102.348 167.065 102.247 167.065H101.784Z" fill="#444444"/>
<path d="M64.5473 175.602C64.6298 175.602 64.6932 175.633 64.6869 175.671L64.6488 175.886C65.1435 175.974 66.4374 176.195 66.8116 176.245C66.8516 176.251 66.8903 176.264 66.9258 176.283C66.9358 176.287 66.9442 176.294 66.9499 176.303C66.9556 176.312 66.9583 176.323 66.9575 176.334C66.9575 176.334 66.9575 176.378 66.8877 176.397C66.818 176.416 66.393 176.624 66.2154 176.693C66.0378 176.763 65.8666 176.75 65.8476 176.738C65.8285 176.725 65.8476 176.738 65.8476 176.7C65.8476 176.662 65.8476 176.656 65.9046 176.637L66.0759 176.561L66.2154 176.498L66.3486 176.441L66.4882 176.378L64.4459 176.025H64.3951C64.3951 176.025 64.3507 175.987 64.3571 175.968L64.4078 175.69C64.3951 175.652 64.4712 175.602 64.5473 175.602Z" fill="#444444"/>
<path d="M59.6003 164.964L54.6785 182.802H45.0886L51.9005 164.97L59.6003 164.964Z" fill="#3F515A"/>
<path d="M51.3869 173.021H54.7294C54.907 173.021 55.0212 173.091 54.9958 173.179C54.9704 173.267 54.8119 173.33 54.6343 173.33H51.8499L51.9387 173.444C51.946 173.457 51.9498 173.471 51.9498 173.485C51.9498 173.499 51.946 173.514 51.9387 173.526C51.9158 173.561 51.886 173.591 51.8511 173.613C51.8162 173.636 51.7769 173.652 51.7358 173.659C51.6675 173.683 51.5944 173.69 51.5226 173.68C51.4509 173.671 51.3826 173.644 51.3235 173.602L51.0317 173.261H51.2347L51.3869 173.021Z" fill="white"/>
<path d="M55.2228 171.387C55.3941 171.387 55.5019 171.456 55.4765 171.545L55.1721 172.542C55.1431 172.594 55.0957 172.635 55.0389 172.655C54.9695 172.684 54.8952 172.699 54.8201 172.699C54.745 172.699 54.6706 172.684 54.6012 172.655L53.3708 171.816C53.2206 171.731 53.0486 171.691 52.8761 171.702C52.701 171.703 52.5273 171.732 52.3623 171.791C52.292 171.812 52.2265 171.847 52.1699 171.893C52.1133 171.94 52.0666 171.997 52.0325 172.062C52.0166 172.108 52.0181 172.159 52.0368 172.204C52.0554 172.249 52.09 172.286 52.134 172.308L52.2608 172.397C52.356 172.46 52.3116 172.554 52.1657 172.617C52.0968 172.648 52.0223 172.664 51.9469 172.664C51.8715 172.664 51.797 172.648 51.7281 172.617L51.6012 172.529C51.5205 172.488 51.4574 172.42 51.4236 172.336C51.3898 172.253 51.3875 172.16 51.4173 172.075C51.4824 171.952 51.5725 171.845 51.6817 171.759C51.7909 171.673 51.9168 171.611 52.0515 171.576C52.3543 171.457 52.6773 171.397 53.0029 171.4C53.3202 171.386 53.6349 171.462 53.9099 171.62L54.6964 172.157L54.8803 171.557C54.893 171.456 55.0516 171.387 55.2228 171.387Z" fill="white"/>
<path d="M53.6638 169.93C53.9845 169.794 54.33 169.725 54.6786 169.728C54.9874 169.715 55.2942 169.784 55.5665 169.93C55.6605 169.97 55.737 170.043 55.7823 170.134C55.8276 170.225 55.8388 170.33 55.8139 170.428C55.7603 170.543 55.6837 170.646 55.5889 170.731C55.494 170.816 55.3828 170.88 55.2621 170.921C55.1934 170.952 55.1188 170.968 55.0433 170.968C54.9678 170.968 54.8931 170.952 54.8245 170.921C54.723 170.857 54.7547 170.756 54.8942 170.693C54.9595 170.672 55.0197 170.637 55.071 170.592C55.1223 170.546 55.1636 170.491 55.1923 170.428C55.2065 170.376 55.2015 170.319 55.1783 170.27C55.1552 170.22 55.1152 170.18 55.0655 170.157C54.9157 170.077 54.7471 170.037 54.5771 170.043C54.3872 170.042 54.1991 170.081 54.0253 170.157C53.8929 170.205 53.7825 170.299 53.7145 170.422C53.7145 170.473 53.6574 170.51 53.5813 170.542C53.5122 170.572 53.4378 170.587 53.3625 170.587C53.2872 170.587 53.2128 170.572 53.1437 170.542L52.6743 170.258L52.5158 170.712C52.5158 170.801 52.3192 170.87 52.1479 170.87C51.9767 170.87 51.8625 170.801 51.8942 170.712L52.186 169.879C52.186 169.791 52.3826 169.722 52.5475 169.722C52.5937 169.714 52.6408 169.714 52.687 169.722H52.7568L53.3403 170.081C53.4404 170.016 53.5493 169.965 53.6638 169.93Z" fill="white"/>
<path d="M55.6489 167.772C55.8138 167.772 55.9153 167.841 55.8899 167.929V167.961H56.2958C56.4607 167.961 56.5622 168.024 56.5368 168.112C56.5115 168.201 56.3656 168.27 56.2007 168.27H55.7948L55.5157 169.154C55.5075 169.176 55.4948 169.196 55.4785 169.214C55.4621 169.231 55.4424 169.245 55.4206 169.254C55.3547 169.284 55.2834 169.299 55.2113 169.299C55.1391 169.299 55.0678 169.284 55.002 169.254L52.8899 168.213V168.182H55.1859V168.15C55.3635 167.847 55.4903 167.772 55.6489 167.772ZM53.8857 168.27L55.0146 168.832L55.1986 168.27H53.8857Z" fill="white"/>
<path d="M54.8628 166.371C55.1694 166.232 55.5027 166.161 55.8396 166.163C56.1326 166.154 56.4224 166.226 56.6768 166.371C56.7676 166.413 56.8406 166.485 56.8825 166.575C56.9243 166.665 56.9324 166.768 56.9051 166.863C56.8559 166.978 56.7831 167.081 56.6913 167.166C56.5995 167.25 56.4908 167.315 56.3723 167.355C56.3071 167.387 56.2355 167.403 56.163 167.403C56.0906 167.403 56.019 167.387 55.9537 167.355C55.8586 167.292 55.8903 167.191 56.0235 167.128C56.0884 167.106 56.1479 167.07 56.1981 167.023C56.2484 166.977 56.2883 166.92 56.3153 166.857C56.3309 166.806 56.3272 166.751 56.3051 166.702C56.2829 166.653 56.2437 166.614 56.1948 166.592C56.0565 166.512 55.8981 166.472 55.7381 166.478C55.5543 166.477 55.3726 166.516 55.2053 166.592C55.1408 166.614 55.0815 166.648 55.0313 166.694C54.9811 166.739 54.941 166.795 54.9136 166.857C54.8958 166.908 54.8976 166.964 54.9186 167.014C54.9397 167.064 54.9785 167.105 55.0277 167.128C55.1229 167.191 55.0848 167.292 54.9516 167.355L54.8755 167.387H54.6916L53.3596 167.305C53.2913 167.302 53.2262 167.275 53.1757 167.229C53.168 167.219 53.1638 167.207 53.1638 167.195C53.1638 167.182 53.168 167.17 53.1757 167.16L53.4675 166.327C53.4675 166.239 53.6514 166.169 53.8163 166.169C53.9812 166.169 54.0827 166.239 54.051 166.327L53.81 167.021L54.3174 167.053C54.3049 166.99 54.3049 166.926 54.3174 166.863C54.3706 166.749 54.4462 166.647 54.5399 166.562C54.6336 166.478 54.7434 166.413 54.8628 166.371Z" fill="white"/>
<defs>
<linearGradient id="paint0_linear_1_10673" x1="254.038" y1="135.798" x2="254.038" y2="158.674" gradientUnits="userSpaceOnUse">
<stop stop-color="#91A3FF"/>
<stop offset="1" stop-color="#C6D2FF"/>
</linearGradient>
<linearGradient id="paint1_linear_1_10673" x1="254.029" y1="137.249" x2="254.029" y2="132.269" gradientUnits="userSpaceOnUse">
<stop stop-color="#91A3FF"/>
<stop offset="1" stop-color="#C6D2FF"/>
</linearGradient>
<linearGradient id="paint2_linear_1_10673" x1="124.717" y1="61.9972" x2="124.717" y2="157.14" gradientUnits="userSpaceOnUse">
<stop stop-color="#FFC727"/>
<stop offset="1" stop-color="#FFE086"/>
</linearGradient>
<linearGradient id="paint3_linear_1_10673" x1="63.1833" y1="61.494" x2="63.1833" y2="157.6" gradientUnits="userSpaceOnUse">
<stop stop-color="#FFC727"/>
<stop offset="1" stop-color="#FFE086"/>
</linearGradient>
<linearGradient id="paint4_linear_1_10673" x1="39.0078" y1="69.2321" x2="39.0078" y2="147.006" gradientUnits="userSpaceOnUse">
<stop stop-color="#FFC727"/>
<stop offset="1" stop-color="#FFDF84"/>
</linearGradient>
<linearGradient id="paint5_linear_1_10673" x1="35.7769" y1="53.7607" x2="35.7769" y2="145.422" gradientUnits="userSpaceOnUse">
<stop stop-color="#FFC727"/>
<stop offset="1" stop-color="#FFE086"/>
</linearGradient>
<linearGradient id="paint6_linear_1_10673" x1="153.674" y1="173.205" x2="209.678" y2="176.234" gradientUnits="userSpaceOnUse">
<stop stop-color="#FFC727"/>
<stop offset="1" stop-color="#FFDF83"/>
</linearGradient>
<linearGradient id="paint7_linear_1_10673" x1="77.9839" y1="163.324" x2="77.9839" y2="184.424" gradientUnits="userSpaceOnUse">
<stop stop-color="#4B68FE"/>
<stop offset="1" stop-color="#C2CCFF"/>
</linearGradient>
<linearGradient id="paint8_linear_1_10673" x1="77.9839" y1="164.856" x2="77.9839" y2="188.001" gradientUnits="userSpaceOnUse">
<stop stop-color="#4B68FE"/>
<stop offset="1" stop-color="#C2CCFF"/>
</linearGradient>
<linearGradient id="paint9_linear_1_10673" x1="66.3007" y1="169.557" x2="66.3007" y2="173.615" gradientUnits="userSpaceOnUse">
<stop stop-color="#4B68FE"/>
<stop offset="1" stop-color="#C2CCFF"/>
</linearGradient>
<linearGradient id="paint10_linear_1_10673" x1="67.0721" y1="164.964" x2="67.0721" y2="169.021" gradientUnits="userSpaceOnUse">
<stop stop-color="#4B68FE"/>
<stop offset="1" stop-color="#C2CCFF"/>
</linearGradient>
</defs>
</svg>
